<svg width="41" height="51" viewBox="0 0 41 51" fill="none" xmlns="http://www.w3.org/2000/svg">
<path d="M20.196 50.116C16.116 50.116 12.5573 49.6173 9.52 48.62C6.48267 47.6227 4.12533 46.104 2.448 44.064C0.816 42.024 0 39.4627 0 36.38C0 33.7053 0.476 31.4613 1.428 29.648C2.42533 27.8347 3.71733 26.4293 5.304 25.432C6.89067 24.3893 8.59067 23.7773 10.404 23.596V22.576C7.63867 22.2587 5.46267 21.3293 3.876 19.788C2.28933 18.2013 1.496 15.8893 1.496 12.852C1.496 8.95333 3.08267 5.848 6.256 3.536C9.42933 1.17867 14.076 0 20.196 0C26.316 0 30.94 1.17867 34.068 3.536C37.2413 5.848 38.828 8.95333 38.828 12.852C38.828 15.8893 38.0347 18.2013 36.448 19.788C34.9067 21.3293 32.7533 22.2587 29.988 22.576V23.596C31.8467 23.7773 33.5467 24.3893 35.088 25.432C36.6747 26.4293 37.944 27.8347 38.896 29.648C39.8933 31.4613 40.392 33.7053 40.392 36.38C40.392 39.4627 39.5533 42.024 37.876 44.064C36.244 46.104 33.9093 47.6227 30.872 48.62C27.8347 49.6173 24.276 50.116 20.196 50.116ZM11.9 15.776C11.9 16.9547 12.512 17.7707 13.736 18.224C15.0053 18.6773 17.1587 18.904 20.196 18.904C23.2333 18.904 25.364 18.6773 26.588 18.224C27.812 17.7707 28.424 16.9547 28.424 15.776C28.424 14.5973 27.812 13.804 26.588 13.396C25.364 12.9427 23.2333 12.716 20.196 12.716C17.1587 12.716 15.0053 12.9427 13.736 13.396C12.512 13.804 11.9 14.5973 11.9 15.776ZM10.744 30.804C10.744 31.9827 11.424 32.8213 12.784 33.32C14.144 33.7733 16.6147 34 20.196 34C23.868 34 26.3613 33.7733 27.676 33.32C29.036 32.8213 29.716 31.9827 29.716 30.804C29.716 29.6253 29.036 28.8093 27.676 28.356C26.3613 27.9027 23.868 27.676 20.196 27.676C16.6147 27.676 14.144 27.9027 12.784 28.356C11.424 28.8093 10.744 29.6253 10.744 30.804Z" fill="#FF7F50"/>
</svg>
