<svg width="35" height="31" viewBox="0 0 35 31" fill="none" xmlns="http://www.w3.org/2000/svg">
<path d="M24.8198 12.4333C24.8304 12.8069 24.7124 13.1729 24.4857 13.4699C24.2589 13.767 23.9371 13.9772 23.574 14.0654C21.4436 14.8503 19.3257 15.6353 17.1828 16.3828C16.9892 16.4427 16.8131 16.5489 16.6699 16.6921C16.5266 16.8354 16.4204 17.0114 16.3605 17.205C15.6255 19.2855 14.8655 21.3536 14.1056 23.4341C14.0215 23.8235 13.8085 24.173 13.501 24.4263C13.1935 24.6795 12.8095 24.8217 12.4112 24.8296C12.0029 24.8177 11.61 24.6704 11.2943 24.411C10.9786 24.1517 10.758 23.795 10.667 23.3967C9.91953 21.3286 9.15957 19.2605 8.41207 17.1675C8.35776 16.9847 8.25868 16.8185 8.1238 16.6836C7.98892 16.5488 7.82251 16.4496 7.63966 16.3953C5.49682 15.6353 3.37889 14.8503 1.24851 14.0654C0.877659 13.9782 0.549514 13.7631 0.321655 13.4577C0.0937964 13.1524 -0.0191895 12.7766 0.00266798 12.3962C-0.00907064 12.0195 0.108014 11.6499 0.334506 11.3487C0.560998 11.0475 0.883362 10.8325 1.24851 10.7392C3.35397 9.96677 5.45946 9.18178 7.57738 8.43428C7.77097 8.37443 7.94706 8.26823 8.09035 8.12495C8.23363 7.98167 8.33975 7.80573 8.3996 7.61214C9.13465 5.54407 9.89468 3.46354 10.6546 1.383C10.7391 0.994897 10.9526 0.646857 11.2603 0.395709C11.568 0.14456 11.9518 0.00499726 12.349 0C13.1588 0 13.7319 0.461127 14.0807 1.42041C14.8407 3.48849 15.6005 5.56902 16.3481 7.64955C16.3995 7.83524 16.4974 8.00466 16.6326 8.14198C16.7677 8.27931 16.9356 8.37987 17.1205 8.43428C19.2799 9.19008 21.427 9.97096 23.5615 10.7766C23.9324 10.861 24.2618 11.0731 24.4918 11.3761C24.7219 11.6791 24.8381 12.0534 24.8198 12.4333Z" fill="#659DF2"/>
<path d="M34.9983 23.6091C35.0036 23.8219 34.9378 24.0304 34.8115 24.2019C34.6852 24.3733 34.5055 24.4979 34.3006 24.5559L30.6503 25.8887C30.5384 25.9183 30.436 25.9765 30.3531 26.0572C30.2702 26.138 30.2095 26.2388 30.1769 26.3498C29.7533 27.5957 29.3173 28.7292 28.9311 29.9252C28.8828 30.1472 28.7601 30.3461 28.5834 30.4888C28.4067 30.6315 28.1864 30.7097 27.9593 30.7102C27.7256 30.7096 27.4992 30.6289 27.3178 30.4815C27.1364 30.3341 27.0111 30.1289 26.9626 29.9003C26.5266 28.6544 26.0905 27.5209 25.7168 26.3374C25.6847 26.2315 25.627 26.1352 25.5487 26.0569C25.4705 25.9787 25.3742 25.9208 25.2683 25.8887L21.6055 24.5559C21.3962 24.5015 21.2122 24.3759 21.085 24.201C20.9577 24.026 20.8951 23.8125 20.9079 23.5966C20.9034 23.3789 20.9722 23.1659 21.1032 22.9919C21.2343 22.818 21.42 22.6931 21.6305 22.6373L25.2558 21.3291C25.3671 21.2942 25.4683 21.233 25.5507 21.1506C25.6331 21.0681 25.6944 20.9668 25.7293 20.8555C26.1528 19.6097 26.5889 18.4762 26.9751 17.2926C27.0187 17.0673 27.1397 16.8643 27.3171 16.7187C27.4946 16.5731 27.7173 16.4939 27.9468 16.4951C28.1805 16.4958 28.407 16.5765 28.5884 16.7239C28.7697 16.8712 28.8951 17.0765 28.9435 17.3051C29.3796 18.5509 29.8156 19.6845 30.1894 20.868C30.2159 20.9767 30.2717 21.076 30.3508 21.1551C30.4299 21.2342 30.5292 21.2901 30.6379 21.3166C31.8837 21.7527 33.1295 22.2137 34.3754 22.6622C34.5674 22.7317 34.7319 22.8614 34.8442 23.0321C34.9564 23.2027 35.0105 23.4052 34.9983 23.6091Z" fill="#659DF2"/>
</svg>
