<svg width="30" height="30" viewBox="0 0 30 30" fill="none" xmlns="http://www.w3.org/2000/svg">
<g filter="url(#filter0_d_192_6840)">
<mask id="path-1-inside-1_192_6840" fill="white">
<path d="M15 0C21.0751 4.12318e-06 25.9999 4.92493 26 11C26 17.0751 21.0751 22 15 22C8.92487 22 4 17.0751 4 11C4.00006 4.92492 8.92491 0 15 0ZM18.6006 11.2373C18.5097 11.2368 18.4219 11.2685 18.3516 11.3262C18.2812 11.3839 18.2331 11.4644 18.2158 11.5537C18.0627 12.0228 17.8896 12.472 17.7217 12.9658C17.7079 13.0099 17.6831 13.0503 17.6504 13.083C17.6178 13.1155 17.578 13.1395 17.5342 13.1533L16.0967 13.6719C16.0134 13.694 15.9396 13.7437 15.8877 13.8125C15.8357 13.8815 15.8078 13.9664 15.8096 14.0527C15.8046 14.1382 15.8296 14.2227 15.8799 14.292C15.9303 14.3614 16.0039 14.411 16.0869 14.4326L17.5391 14.9609C17.581 14.9737 17.6194 14.9973 17.6504 15.0283C17.6812 15.0593 17.7041 15.0978 17.7168 15.1396C17.865 15.6087 18.0381 16.058 18.2109 16.5518C18.2301 16.6424 18.2797 16.7238 18.3516 16.7822C18.4234 16.8406 18.5129 16.8727 18.6055 16.873C18.6955 16.8729 18.7834 16.8417 18.8535 16.7852C18.9235 16.7286 18.9721 16.6494 18.9912 16.5615C19.1443 16.0875 19.3175 15.6383 19.4854 15.1445C19.4983 15.1005 19.5219 15.0603 19.5547 15.0283C19.5876 14.9963 19.6285 14.9727 19.6729 14.9609L21.1201 14.4326C21.2011 14.4096 21.2723 14.3607 21.3223 14.293C21.3723 14.225 21.3986 14.142 21.3965 14.0576C21.4013 13.9768 21.3795 13.8968 21.335 13.8291C21.2905 13.7615 21.2255 13.7102 21.1494 13.6826C20.6555 13.5048 20.1618 13.3213 19.668 13.1484C19.6249 13.1379 19.5851 13.1163 19.5537 13.085C19.5224 13.0536 19.5007 13.0138 19.4902 12.9707C19.3421 12.5016 19.1689 12.0524 18.9961 11.5586C18.9769 11.4681 18.9272 11.3865 18.8555 11.3281C18.7836 11.2697 18.6932 11.2376 18.6006 11.2373ZM12.417 4.69727C12.2596 4.69925 12.1073 4.75495 11.9854 4.85449C11.8634 4.95407 11.7786 5.09222 11.7451 5.24609C11.4439 6.07087 11.142 6.89599 10.8506 7.71582C10.8268 7.79238 10.7852 7.86226 10.7285 7.91895C10.6717 7.97575 10.6012 8.01729 10.5244 8.04102C9.68483 8.33734 8.85027 8.64888 8.01562 8.95508C7.87087 8.99209 7.74311 9.07784 7.65332 9.19727C7.56366 9.31664 7.51683 9.46307 7.52148 9.6123C7.51287 9.76304 7.55814 9.9122 7.64844 10.0332C7.73877 10.1541 7.8687 10.2398 8.01562 10.2744C8.86022 10.5856 9.70027 10.896 10.5498 11.1973C10.6221 11.2188 10.6878 11.2583 10.7412 11.3115C10.7947 11.365 10.8339 11.4314 10.8555 11.5039C11.1518 12.3337 11.4536 13.1537 11.75 13.9736C11.7861 14.1314 11.873 14.2732 11.998 14.376C12.1232 14.4788 12.2795 14.5373 12.4414 14.542C12.5992 14.5389 12.7512 14.4821 12.873 14.3818C12.995 14.2814 13.0799 14.1427 13.1133 13.9883C13.4146 13.1634 13.7154 12.3434 14.0068 11.5186C14.0306 11.4418 14.0731 11.3722 14.1299 11.3154C14.1867 11.2586 14.2563 11.2161 14.333 11.1924C15.1826 10.896 16.0226 10.5856 16.8672 10.2744C17.0111 10.2394 17.1386 10.1558 17.2285 10.0381C17.3184 9.92035 17.3655 9.77501 17.3613 9.62695C17.3686 9.47648 17.3224 9.32805 17.2314 9.20801C17.1403 9.08792 17.0093 9.00322 16.8623 8.96973C16.016 8.65032 15.1647 8.34067 14.3086 8.04102C14.2354 8.01948 14.1688 7.98008 14.1152 7.92578C14.0617 7.87138 14.0224 7.80401 14.002 7.73047C13.7056 6.90569 13.4048 6.08058 13.1035 5.26074C12.9653 4.88053 12.7379 4.69738 12.417 4.69727Z"/>
</mask>
<path d="M15 0C21.0751 4.12318e-06 25.9999 4.92493 26 11C26 17.0751 21.0751 22 15 22C8.92487 22 4 17.0751 4 11C4.00006 4.92492 8.92491 0 15 0ZM18.6006 11.2373C18.5097 11.2368 18.4219 11.2685 18.3516 11.3262C18.2812 11.3839 18.2331 11.4644 18.2158 11.5537C18.0627 12.0228 17.8896 12.472 17.7217 12.9658C17.7079 13.0099 17.6831 13.0503 17.6504 13.083C17.6178 13.1155 17.578 13.1395 17.5342 13.1533L16.0967 13.6719C16.0134 13.694 15.9396 13.7437 15.8877 13.8125C15.8357 13.8815 15.8078 13.9664 15.8096 14.0527C15.8046 14.1382 15.8296 14.2227 15.8799 14.292C15.9303 14.3614 16.0039 14.411 16.0869 14.4326L17.5391 14.9609C17.581 14.9737 17.6194 14.9973 17.6504 15.0283C17.6812 15.0593 17.7041 15.0978 17.7168 15.1396C17.865 15.6087 18.0381 16.058 18.2109 16.5518C18.2301 16.6424 18.2797 16.7238 18.3516 16.7822C18.4234 16.8406 18.5129 16.8727 18.6055 16.873C18.6955 16.8729 18.7834 16.8417 18.8535 16.7852C18.9235 16.7286 18.9721 16.6494 18.9912 16.5615C19.1443 16.0875 19.3175 15.6383 19.4854 15.1445C19.4983 15.1005 19.5219 15.0603 19.5547 15.0283C19.5876 14.9963 19.6285 14.9727 19.6729 14.9609L21.1201 14.4326C21.2011 14.4096 21.2723 14.3607 21.3223 14.293C21.3723 14.225 21.3986 14.142 21.3965 14.0576C21.4013 13.9768 21.3795 13.8968 21.335 13.8291C21.2905 13.7615 21.2255 13.7102 21.1494 13.6826C20.6555 13.5048 20.1618 13.3213 19.668 13.1484C19.6249 13.1379 19.5851 13.1163 19.5537 13.085C19.5224 13.0536 19.5007 13.0138 19.4902 12.9707C19.3421 12.5016 19.1689 12.0524 18.9961 11.5586C18.9769 11.4681 18.9272 11.3865 18.8555 11.3281C18.7836 11.2697 18.6932 11.2376 18.6006 11.2373ZM12.417 4.69727C12.2596 4.69925 12.1073 4.75495 11.9854 4.85449C11.8634 4.95407 11.7786 5.09222 11.7451 5.24609C11.4439 6.07087 11.142 6.89599 10.8506 7.71582C10.8268 7.79238 10.7852 7.86226 10.7285 7.91895C10.6717 7.97575 10.6012 8.01729 10.5244 8.04102C9.68483 8.33734 8.85027 8.64888 8.01562 8.95508C7.87087 8.99209 7.74311 9.07784 7.65332 9.19727C7.56366 9.31664 7.51683 9.46307 7.52148 9.6123C7.51287 9.76304 7.55814 9.9122 7.64844 10.0332C7.73877 10.1541 7.8687 10.2398 8.01562 10.2744C8.86022 10.5856 9.70027 10.896 10.5498 11.1973C10.6221 11.2188 10.6878 11.2583 10.7412 11.3115C10.7947 11.365 10.8339 11.4314 10.8555 11.5039C11.1518 12.3337 11.4536 13.1537 11.75 13.9736C11.7861 14.1314 11.873 14.2732 11.998 14.376C12.1232 14.4788 12.2795 14.5373 12.4414 14.542C12.5992 14.5389 12.7512 14.4821 12.873 14.3818C12.995 14.2814 13.0799 14.1427 13.1133 13.9883C13.4146 13.1634 13.7154 12.3434 14.0068 11.5186C14.0306 11.4418 14.0731 11.3722 14.1299 11.3154C14.1867 11.2586 14.2563 11.2161 14.333 11.1924C15.1826 10.896 16.0226 10.5856 16.8672 10.2744C17.0111 10.2394 17.1386 10.1558 17.2285 10.0381C17.3184 9.92035 17.3655 9.77501 17.3613 9.62695C17.3686 9.47648 17.3224 9.32805 17.2314 9.20801C17.1403 9.08792 17.0093 9.00322 16.8623 8.96973C16.016 8.65032 15.1647 8.34067 14.3086 8.04102C14.2354 8.01948 14.1688 7.98008 14.1152 7.92578C14.0617 7.87138 14.0224 7.80401 14.002 7.73047C13.7056 6.90569 13.4048 6.08058 13.1035 5.26074C12.9653 4.88053 12.7379 4.69738 12.417 4.69727Z" fill="url(#paint0_radial_192_6840)" shape-rendering="crispEdges"/>
<path d="M15 0L15 -1H15V0ZM26 11H27V11L26 11ZM15 22V23H15L15 22ZM4 11L3 11V11H4ZM18.6006 11.2373L18.5955 12.2373L18.5979 12.2373L18.6006 11.2373ZM18.3516 11.3262L17.7174 10.553L17.7172 10.5531L18.3516 11.3262ZM18.2158 11.5537L19.1665 11.8639L19.1858 11.8047L19.1976 11.7436L18.2158 11.5537ZM17.7217 12.9658L16.7749 12.6439L16.771 12.6553L16.7674 12.6668L17.7217 12.9658ZM17.6504 13.083L18.3565 13.7911L18.3575 13.7901L17.6504 13.083ZM17.5342 13.1533L17.2339 12.1995L17.2142 12.2057L17.1948 12.2127L17.5342 13.1533ZM16.0967 13.6719L16.3529 14.6385L16.395 14.6273L16.436 14.6125L16.0967 13.6719ZM15.8877 13.8125L15.0896 13.2099L15.0889 13.2108L15.8877 13.8125ZM15.8096 14.0527L16.8079 14.1112L16.8102 14.0717L16.8094 14.0322L15.8096 14.0527ZM15.8799 14.292L15.0705 14.8793L15.0711 14.8802L15.8799 14.292ZM16.0869 14.4326L16.4288 13.4929L16.3843 13.4767L16.3385 13.4648L16.0869 14.4326ZM17.5391 14.9609L17.1972 15.9007L17.2226 15.9099L17.2484 15.9178L17.5391 14.9609ZM17.6504 15.0283L18.3587 14.3224L18.3575 14.3212L17.6504 15.0283ZM17.7168 15.1396L16.7598 15.4299L16.7632 15.4408L17.7168 15.1396ZM18.2109 16.5518L19.1892 16.3444L19.1759 16.2818L19.1548 16.2214L18.2109 16.5518ZM18.3516 16.7822L17.721 17.5583L17.7211 17.5585L18.3516 16.7822ZM18.6055 16.873L18.6022 17.8731L18.6076 17.873L18.6055 16.873ZM18.8535 16.7852L19.4819 17.5631L19.4824 17.5626L18.8535 16.7852ZM18.9912 16.5615L18.0396 16.2542L18.0245 16.301L18.014 16.349L18.9912 16.5615ZM19.4854 15.1445L20.4321 15.4664L20.4389 15.4464L20.4449 15.4261L19.4854 15.1445ZM19.5547 15.0283L18.8571 14.3118L18.8566 14.3123L19.5547 15.0283ZM19.6729 14.9609L19.9287 15.9277L19.9729 15.916L20.0158 15.9003L19.6729 14.9609ZM21.1201 14.4326L20.8469 13.4707L20.8116 13.4807L20.7772 13.4932L21.1201 14.4326ZM21.3223 14.293L22.1267 14.887L22.1273 14.8862L21.3223 14.293ZM21.3965 14.0576L20.3983 13.9979L20.3957 14.0401L20.3968 14.0823L21.3965 14.0576ZM21.335 13.8291L22.1704 13.2795L22.1704 13.2795L21.335 13.8291ZM21.1494 13.6826L21.4899 12.7424L21.4881 12.7417L21.1494 13.6826ZM19.668 13.1484L19.9983 12.2046L19.9522 12.1885L19.9048 12.1769L19.668 13.1484ZM19.5537 13.085L18.8466 13.7921L18.8469 13.7923L19.5537 13.085ZM19.4902 12.9707L20.4618 12.7339L20.4539 12.7014L20.4438 12.6696L19.4902 12.9707ZM18.9961 11.5586L18.0178 11.7659L18.0311 11.8285L18.0522 11.889L18.9961 11.5586ZM18.8555 11.3281L19.487 10.5528L19.4861 10.552L18.8555 11.3281ZM12.417 4.69727L12.4174 3.69718L12.4044 3.69734L12.417 4.69727ZM11.9854 4.85449L11.3531 4.07971L11.353 4.07977L11.9854 4.85449ZM11.7451 5.24609L12.6844 5.58919L12.7078 5.52527L12.7222 5.45878L11.7451 5.24609ZM10.8506 7.71582L9.90833 7.38092L9.90153 7.40005L9.89552 7.41943L10.8506 7.71582ZM10.7285 7.91895L11.4356 8.62607L11.4356 8.62605L10.7285 7.91895ZM10.5244 8.04102L10.229 7.08564L10.2102 7.09146L10.1916 7.09803L10.5244 8.04102ZM8.01562 8.95508L8.26331 9.92392L8.31244 9.91136L8.36004 9.89389L8.01562 8.95508ZM7.65332 9.19727L6.85404 8.5963L6.85372 8.59673L7.65332 9.19727ZM7.52148 9.6123L8.51985 9.66938L8.52237 9.62529L8.521 9.58116L7.52148 9.6123ZM7.64844 10.0332L6.847 10.6313L6.84729 10.6317L7.64844 10.0332ZM8.01562 10.2744L8.36133 9.33607L8.30411 9.31499L8.24475 9.30102L8.01562 10.2744ZM10.5498 11.1973L10.2156 12.1397L10.24 12.1484L10.2649 12.1558L10.5498 11.1973ZM10.7412 11.3115L11.4483 10.6044L11.4475 10.6036L10.7412 11.3115ZM10.8555 11.5039L9.89687 11.7887L9.9046 11.8147L9.91373 11.8402L10.8555 11.5039ZM11.75 13.9736L12.7249 13.7509L12.7112 13.6912L12.6905 13.6337L11.75 13.9736ZM11.998 14.376L11.3631 15.1485L11.3633 15.1487L11.998 14.376ZM12.4414 14.542L12.4124 15.5416L12.4368 15.5423L12.4612 15.5418L12.4414 14.542ZM12.873 14.3818L13.5084 15.1541L13.5088 15.1538L12.873 14.3818ZM13.1133 13.9883L12.174 13.6452L12.1503 13.7099L12.1358 13.7772L13.1133 13.9883ZM14.0068 11.5186L14.9497 11.8517L14.9563 11.8329L14.9622 11.8139L14.0068 11.5186ZM14.1299 11.3154L13.4228 10.6083L13.4228 10.6083L14.1299 11.3154ZM14.333 11.1924L14.6285 12.1477L14.6455 12.1425L14.6624 12.1366L14.333 11.1924ZM16.8672 10.2744L16.6309 9.30272L16.5753 9.31626L16.5215 9.33607L16.8672 10.2744ZM17.2285 10.0381L18.0232 10.6451L18.0234 10.6449L17.2285 10.0381ZM17.3613 9.62695L16.3625 9.57894L16.3607 9.61699L16.3617 9.65507L17.3613 9.62695ZM17.2314 9.20801L18.0284 8.60392L18.0278 8.60323L17.2314 9.20801ZM16.8623 8.96973L16.5092 9.90531L16.5733 9.92952L16.6402 9.94475L16.8623 8.96973ZM14.3086 8.04102L14.6389 7.09716L14.6152 7.08883L14.591 7.08171L14.3086 8.04102ZM14.1152 7.92578L13.4025 8.62721L13.4031 8.62785L14.1152 7.92578ZM14.002 7.73047L14.9655 7.46305L14.9556 7.42728L14.9431 7.39235L14.002 7.73047ZM13.1035 5.26074L12.1637 5.60249L12.1649 5.60566L13.1035 5.26074ZM15 0L15 1C20.5228 1 24.9999 5.4772 25 11L26 11L27 11C26.9999 4.37265 21.6274 -0.999996 15 -1L15 0ZM26 11H25C25 16.5228 20.5228 21 15 21L15 22L15 23C21.6274 23 27 17.6274 27 11H26ZM15 22V21C9.47716 21 5 16.5228 5 11H4H3C3 17.6274 8.37259 23 15 23V22ZM4 11L5 11C5.00006 5.4772 9.47721 1 15 1V0V-1C8.37262 -1 3.00007 4.37265 3 11L4 11ZM18.6006 11.2373L18.6056 10.2373C18.2779 10.2357 17.9649 10.35 17.7174 10.553L18.3516 11.3262L18.9858 12.0993C18.8789 12.187 18.7414 12.238 18.5955 12.2373L18.6006 11.2373ZM18.3516 11.3262L17.7172 10.5531C17.4675 10.758 17.2958 11.0444 17.234 11.3639L18.2158 11.5537L19.1976 11.7436C19.1704 11.8843 19.0949 12.0098 18.9859 12.0992L18.3516 11.3262ZM18.2158 11.5537L17.2652 11.2435C17.1055 11.7328 16.9691 12.0728 16.7749 12.6439L17.7217 12.9658L18.6685 13.2877C18.8101 12.8713 19.02 12.3128 19.1665 11.8639L18.2158 11.5537ZM17.7217 12.9658L16.7674 12.6668C16.8031 12.5531 16.8647 12.4544 16.9433 12.3759L17.6504 13.083L18.3575 13.7901C18.5014 13.6462 18.6126 13.4668 18.6759 13.2649L17.7217 12.9658ZM17.6504 13.083L16.9443 12.3749C17.0259 12.2935 17.1254 12.2336 17.2339 12.1995L17.5342 13.1533L17.8345 14.1072C18.0306 14.0454 18.2098 13.9374 18.3565 13.7911L17.6504 13.083ZM17.5342 13.1533L17.1948 12.2127L15.7573 12.7312L16.0967 13.6719L16.436 14.6125L17.8735 14.094L17.5342 13.1533ZM16.0967 13.6719L15.8405 12.7053C15.5394 12.785 15.2755 12.9638 15.0896 13.2099L15.8877 13.8125L16.6858 14.4151C16.6038 14.5236 16.4873 14.6029 16.3529 14.6385L16.0967 13.6719ZM15.8877 13.8125L15.0889 13.2108C14.9045 13.4556 14.8033 13.7589 14.8098 14.0733L15.8096 14.0527L16.8094 14.0322C16.8123 14.1739 16.7669 14.3073 16.6864 14.4142L15.8877 13.8125ZM15.8096 14.0527L14.8113 13.9943C14.7926 14.3129 14.8861 14.6251 15.0705 14.8793L15.8799 14.292L16.6893 13.7047C16.7731 13.8203 16.8165 13.9634 16.8079 14.1112L15.8096 14.0527ZM15.8799 14.292L15.0711 14.8802C15.2596 15.1393 15.5313 15.3214 15.8353 15.4004L16.0869 14.4326L16.3385 13.4648C16.4765 13.5007 16.601 13.5834 16.6886 13.7038L15.8799 14.292ZM16.0869 14.4326L15.745 15.3724L17.1972 15.9007L17.5391 14.9609L17.881 14.0212L16.4288 13.4929L16.0869 14.4326ZM17.5391 14.9609L17.2484 15.9178C17.1251 15.8803 17.0224 15.8146 16.9433 15.7354L17.6504 15.0283L18.3575 14.3212C18.2164 14.1801 18.0369 14.067 17.8297 14.0041L17.5391 14.9609ZM17.6504 15.0283L16.9421 15.7343C16.8554 15.6473 16.794 15.5424 16.7599 15.4299L17.7168 15.1396L18.6737 14.8494C18.6142 14.6532 18.5071 14.4713 18.3587 14.3224L17.6504 15.0283ZM17.7168 15.1396L16.7632 15.4408C16.9168 15.9271 17.1085 16.429 17.2671 16.8821L18.2109 16.5518L19.1548 16.2214C18.9677 15.6869 18.8131 15.2904 18.6704 14.8385L17.7168 15.1396ZM18.2109 16.5518L17.2327 16.7591C17.299 17.0719 17.4702 17.3546 17.721 17.5583L18.3516 16.7822L18.9822 16.0061C19.0891 16.093 19.1613 16.2129 19.1892 16.3444L18.2109 16.5518ZM18.3516 16.7822L17.7211 17.5585C17.969 17.7598 18.2795 17.872 18.6022 17.873L18.6055 16.873L18.6087 15.8731C18.7464 15.8735 18.8778 15.9214 18.982 16.006L18.3516 16.7822ZM18.6055 16.873L18.6076 17.873C18.9251 17.8724 19.234 17.7633 19.4819 17.5631L18.8535 16.7852L18.2252 16.0072C18.3329 15.9202 18.466 15.8733 18.6033 15.873L18.6055 16.873ZM18.8535 16.7852L19.4824 17.5626C19.7302 17.3622 19.9011 17.0834 19.9684 16.774L18.9912 16.5615L18.014 16.349C18.0431 16.2154 18.1168 16.0949 18.2246 16.0077L18.8535 16.7852ZM18.9912 16.5615L19.9428 16.8688C20.0993 16.3843 20.2406 16.0296 20.4321 15.4664L19.4854 15.1445L18.5386 14.8226C18.3943 15.247 18.1893 15.7907 18.0396 16.2542L18.9912 16.5615ZM19.4854 15.1445L20.4449 15.4261C20.4117 15.5394 20.3485 15.651 20.2527 15.7444L19.5547 15.0283L18.8566 14.3123C18.6952 14.4696 18.5849 14.6617 18.5258 14.863L19.4854 15.1445ZM19.5547 15.0283L20.2523 15.7448C20.1661 15.8287 20.0563 15.8939 19.9287 15.9277L19.6729 14.9609L19.417 13.9942C19.2007 14.0515 19.009 14.1639 18.8571 14.3118L19.5547 15.0283ZM19.6729 14.9609L20.0158 15.9003L21.463 15.372L21.1201 14.4326L20.7772 13.4932L19.3299 14.0216L19.6729 14.9609ZM21.1201 14.4326L21.3934 15.3946C21.6848 15.3118 21.9437 15.1348 22.1267 14.887L21.3223 14.293L20.5178 13.6989C20.6008 13.5866 20.7174 13.5075 20.8469 13.4707L21.1201 14.4326ZM21.3223 14.293L22.1273 14.8862C22.3086 14.6401 22.4038 14.3398 22.3962 14.0329L21.3965 14.0576L20.3968 14.0823C20.3934 13.9442 20.436 13.8099 20.5172 13.6998L21.3223 14.293ZM21.3965 14.0576L22.3947 14.1173C22.4126 13.8172 22.3312 13.524 22.1704 13.2795L21.335 13.8291L20.4995 14.3787C20.4277 14.2695 20.39 14.1364 20.3983 13.9979L21.3965 14.0576ZM21.335 13.8291L22.1704 13.2795C22.0075 13.0319 21.7691 12.8435 21.4899 12.7424L21.1494 13.6826L20.8089 14.6229C20.682 14.5769 20.5734 14.491 20.4995 14.3787L21.335 13.8291ZM21.1494 13.6826L21.4881 12.7417C21.0086 12.5691 20.4965 12.379 19.9983 12.2046L19.668 13.1484L19.3376 14.0923C19.8272 14.2636 20.3025 14.4406 20.8107 14.6235L21.1494 13.6826ZM19.668 13.1484L19.9048 12.1769C20.0296 12.2073 20.1552 12.2724 20.2605 12.3776L19.5537 13.085L18.8469 13.7923C19.0149 13.9602 19.2202 14.0686 19.4311 14.12L19.668 13.1484ZM19.5537 13.085L20.2608 12.3779C20.3664 12.4835 20.4314 12.6094 20.4618 12.7339L19.4902 12.9707L18.5187 13.2076C18.57 13.4182 18.6783 13.6237 18.8466 13.7921L19.5537 13.085ZM19.4902 12.9707L20.4438 12.6696C20.2902 12.1832 20.0985 11.6813 19.9399 11.2282L18.9961 11.5586L18.0522 11.889C18.2393 12.4235 18.394 12.82 18.5367 13.2718L19.4902 12.9707ZM18.9961 11.5586L19.9744 11.3513C19.9079 11.0378 19.736 10.7556 19.487 10.5528L18.8555 11.3281L18.2239 12.1035C18.1183 12.0174 18.0459 11.8984 18.0178 11.7659L18.9961 11.5586ZM18.8555 11.3281L19.4861 10.552C19.2363 10.3491 18.9243 10.2382 18.6033 10.2373L18.6006 11.2373L18.5979 12.2373C18.4622 12.2369 18.3308 12.1903 18.2249 12.1042L18.8555 11.3281ZM12.417 4.69727L12.4044 3.69734C12.0192 3.70219 11.649 3.8383 11.3531 4.07971L11.9854 4.85449L12.6176 5.62927C12.5657 5.67159 12.4999 5.6963 12.4296 5.69719L12.417 4.69727ZM11.9854 4.85449L11.353 4.07977C11.0558 4.32237 10.8496 4.65866 10.768 5.03341L11.7451 5.24609L12.7222 5.45878C12.7077 5.52578 12.6709 5.58577 12.6177 5.62921L11.9854 4.85449ZM11.7451 5.24609L10.8058 4.903C10.505 5.72655 10.2015 6.55613 9.90833 7.38092L10.8506 7.71582L11.7928 8.05072C12.0825 7.23584 12.3827 6.41518 12.6844 5.58919L11.7451 5.24609ZM10.8506 7.71582L9.89552 7.41943C9.91862 7.34498 9.96042 7.27283 10.0214 7.21184L10.7285 7.91895L11.4356 8.62605C11.61 8.45169 11.735 8.23977 11.8057 8.01221L10.8506 7.71582ZM10.7285 7.91895L10.0214 7.21182C10.0848 7.14847 10.1575 7.10775 10.229 7.08564L10.5244 8.04102L10.8198 8.9964C11.0448 8.92682 11.2586 8.80302 11.4356 8.62607L10.7285 7.91895ZM10.5244 8.04102L10.1916 7.09803C9.34427 7.39709 8.49877 7.71266 7.67121 8.01626L8.01562 8.95508L8.36004 9.89389C9.20177 9.58509 10.0254 9.2776 10.8572 8.984L10.5244 8.04102ZM8.01562 8.95508L7.76794 7.98624C7.40071 8.08012 7.07919 8.29686 6.85404 8.5963L7.65332 9.19727L8.4526 9.79823C8.40703 9.85883 8.34103 9.90405 8.26331 9.92392L8.01562 8.95508ZM7.65332 9.19727L6.85372 8.59673C6.62891 8.89606 6.51017 9.26485 6.52197 9.64345L7.52148 9.6123L8.521 9.58116C8.5235 9.6613 8.49841 9.73723 8.45292 9.7978L7.65332 9.19727ZM7.52148 9.6123L6.52311 9.55523C6.50097 9.94268 6.61726 10.3234 6.847 10.6313L7.64844 10.0332L8.44987 9.43512C8.49901 9.50097 8.52477 9.5834 8.51985 9.66938L7.52148 9.6123ZM7.64844 10.0332L6.84729 10.6317C7.07701 10.9392 7.40866 11.1589 7.7865 11.2478L8.01562 10.2744L8.24475 9.30102C8.32873 9.32079 8.40053 9.36907 8.44958 9.43473L7.64844 10.0332ZM8.01562 10.2744L7.66992 11.2128C8.51268 11.5232 9.35905 11.836 10.2156 12.1397L10.5498 11.1973L10.8841 10.2548C10.0415 9.95596 9.20777 9.64792 8.36133 9.33607L8.01562 10.2744ZM10.5498 11.1973L10.2649 12.1558C10.175 12.1291 10.0967 12.0811 10.0349 12.0195L10.7412 11.3115L11.4475 10.6036C11.2789 10.4354 11.0692 10.3084 10.8347 10.2387L10.5498 11.1973ZM10.7412 11.3115L10.0341 12.0186C9.96826 11.9528 9.92205 11.8734 9.89687 11.7887L10.8555 11.5039L11.8141 11.2192C11.7458 10.9894 11.6211 10.7772 11.4483 10.6044L10.7412 11.3115ZM10.8555 11.5039L9.91373 11.8402C10.2105 12.6712 10.5163 13.5022 10.8095 14.3136L11.75 13.9736L12.6905 13.6337C12.391 12.8052 12.0932 11.9963 11.7972 11.1676L10.8555 11.5039ZM11.75 13.9736L10.7751 14.1964C10.8599 14.5674 11.0649 14.9035 11.3631 15.1485L11.998 14.376L12.633 13.6034C12.6811 13.6429 12.7122 13.6954 12.7249 13.7509L11.75 13.9736ZM11.998 14.376L11.3633 15.1487C11.6597 15.3922 12.0291 15.5305 12.4124 15.5416L12.4414 14.542L12.4704 13.5424C12.5299 13.5441 12.5867 13.5654 12.6328 13.6033L11.998 14.376ZM12.4414 14.542L12.4612 15.5418C12.8464 15.5342 13.2147 15.3957 13.5084 15.1541L12.873 14.3818L12.2377 13.6096C12.2877 13.5685 12.352 13.5436 12.4216 13.5422L12.4414 14.542ZM12.873 14.3818L13.5088 15.1538C13.8032 14.9113 14.0095 14.5754 14.0908 14.1994L13.1133 13.9883L12.1358 13.7772C12.1503 13.7099 12.1867 13.6516 12.2373 13.6099L12.873 14.3818ZM13.1133 13.9883L14.0526 14.3314C14.3531 13.5088 14.6561 12.6827 14.9497 11.8517L14.0068 11.5186L13.0639 11.1854C12.7747 12.0041 12.4761 12.8181 12.174 13.6452L13.1133 13.9883ZM14.0068 11.5186L14.9622 11.8139C14.9367 11.8965 14.8923 11.9673 14.837 12.0225L14.1299 11.3154L13.4228 10.6083C13.2539 10.7772 13.1244 10.9871 13.0515 11.2232L14.0068 11.5186ZM14.1299 11.3154L14.837 12.0225C14.7817 12.0779 14.7109 12.1222 14.6285 12.1477L14.333 11.1924L14.0375 10.237C13.8016 10.31 13.5917 10.4394 13.4228 10.6083L14.1299 11.3154ZM14.333 11.1924L14.6624 12.1366C15.5218 11.8368 16.3706 11.5231 17.2129 11.2128L16.8672 10.2744L16.5215 9.33607C15.6746 9.64809 14.8433 9.95526 14.0036 10.2482L14.333 11.1924ZM16.8672 10.2744L17.1034 11.2461C17.4712 11.1567 17.7953 10.9434 18.0232 10.6451L17.2285 10.0381L16.4339 9.43103C16.4819 9.36808 16.5509 9.32217 16.6309 9.30272L16.8672 10.2744ZM17.2285 10.0381L18.0234 10.6449C18.2515 10.346 18.3716 9.97681 18.3609 9.59884L17.3613 9.62695L16.3617 9.65507C16.3594 9.57322 16.3853 9.49467 16.4336 9.43131L17.2285 10.0381ZM17.3613 9.62695L18.3602 9.67497C18.3787 9.28947 18.2606 8.91035 18.0284 8.60392L17.2314 9.20801L16.4345 9.8121C16.3842 9.74575 16.3584 9.6635 16.3625 9.57894L17.3613 9.62695ZM17.2314 9.20801L18.0278 8.60323C17.7953 8.29707 17.4615 8.08062 17.0844 7.99471L16.8623 8.96973L16.6402 9.94475C16.5571 9.92582 16.4852 9.87878 16.4351 9.81279L17.2314 9.20801ZM16.8623 8.96973L17.2154 8.03415C16.3616 7.7119 15.5027 7.39949 14.6389 7.09716L14.3086 8.04102L13.9782 8.98487C14.8267 9.28184 15.6704 9.58874 16.5092 9.90531L16.8623 8.96973ZM14.3086 8.04102L14.591 7.08171C14.6767 7.10696 14.759 7.15439 14.8273 7.22371L14.1152 7.92578L13.4031 8.62785C13.5785 8.80577 13.7942 8.93201 14.0262 9.00032L14.3086 8.04102ZM14.1152 7.92578L14.828 7.22435C14.8913 7.28874 14.9397 7.36997 14.9655 7.46305L14.002 7.73047L13.0384 7.99789C13.105 8.23805 13.2321 8.45402 13.4025 8.62721L14.1152 7.92578ZM14.002 7.73047L14.9431 7.39235C14.6457 6.56467 14.344 5.73719 14.0421 4.91582L13.1035 5.26074L12.1649 5.60566C12.4656 6.42397 12.7656 7.24671 13.0609 8.06859L14.002 7.73047ZM13.1035 5.26074L14.0433 4.919C13.9342 4.61887 13.757 4.3035 13.4614 4.06205C13.15 3.80761 12.7829 3.6974 12.4174 3.69727L12.417 4.69727L12.4166 5.69727C12.401 5.69726 12.3663 5.69484 12.3207 5.67949C12.2739 5.6637 12.2309 5.63933 12.1961 5.61089C12.129 5.5561 12.1346 5.5224 12.1637 5.60249L13.1035 5.26074Z" fill="white" mask="url(#path-1-inside-1_192_6840)"/>
</g>
<defs>
<filter id="filter0_d_192_6840" x="0" y="0" width="30" height="30" filterUnits="userSpaceOnUse" color-interpolation-filters="sRGB">
<feFlood flood-opacity="0" result="BackgroundImageFix"/>
<feColorMatrix in="SourceAlpha" type="matrix" values="0 0 0 0 0 0 0 0 0 0 0 0 0 0 0 0 0 0 127 0" result="hardAlpha"/>
<feOffset dy="4"/>
<feGaussianBlur stdDeviation="2"/>
<feComposite in2="hardAlpha" operator="out"/>
<feColorMatrix type="matrix" values="0 0 0 0 0 0 0 0 0 0 0 0 0 0 0 0 0 0 0.25 0"/>
<feBlend mode="normal" in2="BackgroundImageFix" result="effect1_dropShadow_192_6840"/>
<feBlend mode="normal" in="SourceGraphic" in2="effect1_dropShadow_192_6840" result="shape"/>
</filter>
<radialGradient id="paint0_radial_192_6840" cx="0" cy="0" r="1" gradientUnits="userSpaceOnUse" gradientTransform="translate(15 11) rotate(90) scale(11)">
<stop stop-color="white"/>
<stop offset="1" stop-color="white" stop-opacity="0.85"/>
</radialGradient>
</defs>
</svg>
