<svg width="48" height="58" viewBox="0 0 48 58" fill="none" xmlns="http://www.w3.org/2000/svg">
<g filter="url(#filter0_d_210_11387)">
<path d="M43.9997 16.8306C44.0138 18.7443 43.4292 20.613 42.3305 22.1672C41.2318 23.7214 39.6756 24.8806 37.8867 25.4775L15.9103 33.1616C15.3515 33.356 14.7745 33.4912 14.1884 33.5653V44.8221C14.1884 46.1954 13.6517 47.5123 12.6964 48.4833C11.741 49.4543 10.4453 50 9.09421 50C7.74314 50 6.44742 49.4543 5.49207 48.4833C4.53672 47.5123 4 46.1954 4 44.8221V24.9286C4 24.7836 4 24.6491 4 24.5145V9.14647C4 9.01185 4 8.87732 4 8.73234C4.0191 8.27306 4.07361 7.81594 4.16302 7.36532C4.41291 6.08447 4.92983 4.87293 5.67894 3.81211C6.42805 2.75129 7.392 1.86584 8.50594 1.21534C9.61988 0.564848 10.858 0.164441 12.1369 0.0409688C13.4158 -0.0825029 14.706 0.073894 15.9205 0.499594L37.8969 8.18346C39.6839 8.78216 41.2378 9.9422 42.3346 11.4962C43.4314 13.0503 44.0145 14.9181 43.9997 16.8306Z" fill="url(#paint0_radial_210_11387)" shape-rendering="crispEdges"/>
<path d="M12.1846 0.539062C13.3912 0.422574 14.6087 0.569948 15.7549 0.97168H15.7559L37.7314 8.65527L37.7383 8.65723C39.4233 9.22176 40.8898 10.3164 41.9258 11.7842C42.9619 13.2523 43.5139 15.0186 43.5 16.8271V16.834C43.5133 18.6437 42.9599 20.4107 41.9219 21.8789C40.884 23.3468 39.4153 24.4401 37.7285 25.0029L37.7217 25.0059L15.7451 32.6895C15.2196 32.8722 14.6771 32.9996 14.126 33.0693L13.6885 33.125V44.8223C13.6884 46.0655 13.2023 47.2562 12.3398 48.1328C11.4776 49.0091 10.3095 49.5 9.09375 49.5C7.87822 49.4999 6.71077 49.009 5.84863 48.1328C4.98615 47.2562 4.50003 46.0655 4.5 44.8223V8.75293C4.51803 8.3195 4.56896 7.8881 4.65332 7.46289V7.46094C4.88974 6.24918 5.37884 5.10337 6.08691 4.10059C6.79499 3.09788 7.7062 2.26163 8.75781 1.64746C9.80942 1.03337 10.9781 0.655602 12.1846 0.539062Z" stroke="#FF7F50" shape-rendering="crispEdges"/>
</g>
<defs>
<filter id="filter0_d_210_11387" x="0" y="0" width="48" height="58" filterUnits="userSpaceOnUse" color-interpolation-filters="sRGB">
<feFlood flood-opacity="0" result="BackgroundImageFix"/>
<feColorMatrix in="SourceAlpha" type="matrix" values="0 0 0 0 0 0 0 0 0 0 0 0 0 0 0 0 0 0 127 0" result="hardAlpha"/>
<feOffset dy="4"/>
<feGaussianBlur stdDeviation="2"/>
<feComposite in2="hardAlpha" operator="out"/>
<feColorMatrix type="matrix" values="0 0 0 0 0 0 0 0 0 0 0 0 0 0 0 0 0 0 0.5 0"/>
<feBlend mode="normal" in2="BackgroundImageFix" result="effect1_dropShadow_210_11387"/>
<feBlend mode="normal" in="SourceGraphic" in2="effect1_dropShadow_210_11387" result="shape"/>
</filter>
<radialGradient id="paint0_radial_210_11387" cx="0" cy="0" r="1" gradientUnits="userSpaceOnUse" gradientTransform="translate(24 25) rotate(90) scale(25 20)">
<stop stop-color="#FF7F50"/>
<stop offset="1" stop-color="#FF7F50" stop-opacity="0.8"/>
</radialGradient>
</defs>
</svg>
