<svg width="12" height="12" viewBox="0 0 12 12" fill="none" xmlns="http://www.w3.org/2000/svg">
<path d="M2.23563 4.68191L6.79357 5.29746L7.35191 9.73168L10.7248 1.27759L2.23563 4.68191ZM0.39639 5.356C0.296372 5.34275 0.203558 5.29663 0.132471 5.22486C0.0613849 5.15308 0.0160368 5.05971 0.00352317 4.95934C-0.00899044 4.85898 0.0120366 4.75729 0.0633138 4.67018C0.114591 4.58307 0.193225 4.51547 0.286912 4.47794L11.3743 0.03275C11.4572 -0.000516381 11.548 -0.00865998 11.6355 0.00932882C11.723 0.0273176 11.8033 0.0706477 11.8664 0.133947C11.9295 0.197247 11.9728 0.277732 11.9907 0.365425C12.0086 0.453118 12.0005 0.544163 11.9673 0.627271L7.5435 11.7128C7.50594 11.8068 7.43835 11.8856 7.35131 11.9369C7.26428 11.9882 7.16273 12.0091 7.06257 11.9964C6.96241 11.9836 6.8693 11.9379 6.79784 11.8664C6.72638 11.7949 6.6806 11.7016 6.66767 11.6012L5.97613 6.10967L0.39639 5.356Z" fill="white"/>
</svg>
