<svg width="30" height="30" viewBox="0 0 30 30" fill="none" xmlns="http://www.w3.org/2000/svg">
<g filter="url(#filter0_d_192_6834)">
<mask id="path-1-inside-1_192_6834" fill="white">
<path d="M16.7432 0C19.1419 0 21.4454 0.938812 23.1611 2.61523C24.8768 4.29161 25.8682 6.57266 25.9238 8.9707L25.8945 8.95605C25.896 10.7824 25.3548 12.5682 24.3389 14.0859C23.323 15.6036 21.8784 16.7847 20.1895 17.4795C19.0928 17.9185 17.9225 18.1441 16.7412 18.1445C15.3909 18.147 14.0564 17.8508 12.834 17.2773L9.30664 20.8096C8.72327 21.3923 7.93196 21.7201 7.10742 21.7197C6.28286 21.7193 5.49194 21.391 4.90918 20.8076C4.32641 20.2242 3.99954 19.433 4 18.6084C4.00047 17.7839 4.32782 16.9929 4.91113 16.4102L8.43457 12.8877C7.8598 11.662 7.56204 10.3245 7.5625 8.9707C7.61812 6.57267 8.60955 4.29161 10.3252 2.61523C12.0409 0.938815 14.3444 1.51958e-05 16.7432 0ZM16.9922 3.81641C16.8349 3.81912 16.6828 3.87461 16.5605 3.97363C16.4384 4.07274 16.3526 4.20993 16.3174 4.36328C16.0218 5.18589 15.7213 6.00849 15.4307 6.82617C15.407 6.90269 15.3652 6.97265 15.3086 7.0293C15.2519 7.08596 15.182 7.1277 15.1055 7.15137C14.2679 7.44696 13.4351 7.75803 12.6025 8.06348C12.4592 8.10202 12.3324 8.18701 12.2432 8.30566C12.1539 8.42442 12.1075 8.5702 12.1104 8.71875C12.1037 8.86865 12.1486 9.01645 12.2383 9.13672C12.328 9.25699 12.4569 9.34262 12.6025 9.37891C13.4449 9.68924 14.2827 9.99932 15.125 10.2998C15.1984 10.3201 15.266 10.3587 15.3203 10.4121C15.3746 10.4656 15.414 10.5324 15.4355 10.6055C15.7311 11.433 16.0316 12.2507 16.3271 13.0684C16.3623 13.2263 16.4502 13.368 16.5752 13.4707C16.7002 13.5733 16.8559 13.6319 17.0176 13.6357C17.175 13.6326 17.3267 13.5757 17.4482 13.4756C17.5697 13.3755 17.6542 13.2377 17.6875 13.084C17.988 12.2612 18.2884 11.4429 18.5791 10.6201C18.6028 10.5436 18.6445 10.4736 18.7012 10.417C18.7578 10.3604 18.8278 10.3186 18.9043 10.2949C19.7467 9.99934 20.5893 9.68927 21.4268 9.37891C21.5698 9.34319 21.6966 9.25975 21.7861 9.14258C21.8756 9.02534 21.9222 8.88085 21.9189 8.7334C21.9264 8.58387 21.8819 8.43609 21.792 8.31641C21.702 8.1967 21.5725 8.11251 21.4268 8.07812C20.5827 7.75955 19.7338 7.45024 18.8799 7.15137C18.8077 7.12714 18.7414 7.08706 18.6875 7.0332C18.6338 6.97947 18.5936 6.9138 18.5693 6.8418C18.2787 6.01903 17.9783 5.19577 17.6777 4.37793C17.5398 3.99857 17.3124 3.81641 16.9922 3.81641Z"/>
</mask>
<path d="M16.7432 0C19.1419 0 21.4454 0.938812 23.1611 2.61523C24.8768 4.29161 25.8682 6.57266 25.9238 8.9707L25.8945 8.95605C25.896 10.7824 25.3548 12.5682 24.3389 14.0859C23.323 15.6036 21.8784 16.7847 20.1895 17.4795C19.0928 17.9185 17.9225 18.1441 16.7412 18.1445C15.3909 18.147 14.0564 17.8508 12.834 17.2773L9.30664 20.8096C8.72327 21.3923 7.93196 21.7201 7.10742 21.7197C6.28286 21.7193 5.49194 21.391 4.90918 20.8076C4.32641 20.2242 3.99954 19.433 4 18.6084C4.00047 17.7839 4.32782 16.9929 4.91113 16.4102L8.43457 12.8877C7.8598 11.662 7.56204 10.3245 7.5625 8.9707C7.61812 6.57267 8.60955 4.29161 10.3252 2.61523C12.0409 0.938815 14.3444 1.51958e-05 16.7432 0ZM16.9922 3.81641C16.8349 3.81912 16.6828 3.87461 16.5605 3.97363C16.4384 4.07274 16.3526 4.20993 16.3174 4.36328C16.0218 5.18589 15.7213 6.00849 15.4307 6.82617C15.407 6.90269 15.3652 6.97265 15.3086 7.0293C15.2519 7.08596 15.182 7.1277 15.1055 7.15137C14.2679 7.44696 13.4351 7.75803 12.6025 8.06348C12.4592 8.10202 12.3324 8.18701 12.2432 8.30566C12.1539 8.42442 12.1075 8.5702 12.1104 8.71875C12.1037 8.86865 12.1486 9.01645 12.2383 9.13672C12.328 9.25699 12.4569 9.34262 12.6025 9.37891C13.4449 9.68924 14.2827 9.99932 15.125 10.2998C15.1984 10.3201 15.266 10.3587 15.3203 10.4121C15.3746 10.4656 15.414 10.5324 15.4355 10.6055C15.7311 11.433 16.0316 12.2507 16.3271 13.0684C16.3623 13.2263 16.4502 13.368 16.5752 13.4707C16.7002 13.5733 16.8559 13.6319 17.0176 13.6357C17.175 13.6326 17.3267 13.5757 17.4482 13.4756C17.5697 13.3755 17.6542 13.2377 17.6875 13.084C17.988 12.2612 18.2884 11.4429 18.5791 10.6201C18.6028 10.5436 18.6445 10.4736 18.7012 10.417C18.7578 10.3604 18.8278 10.3186 18.9043 10.2949C19.7467 9.99934 20.5893 9.68927 21.4268 9.37891C21.5698 9.34319 21.6966 9.25975 21.7861 9.14258C21.8756 9.02534 21.9222 8.88085 21.9189 8.7334C21.9264 8.58387 21.8819 8.43609 21.792 8.31641C21.702 8.1967 21.5725 8.11251 21.4268 8.07812C20.5827 7.75955 19.7338 7.45024 18.8799 7.15137C18.8077 7.12714 18.7414 7.08706 18.6875 7.0332C18.6338 6.97947 18.5936 6.9138 18.5693 6.8418C18.2787 6.01903 17.9783 5.19577 17.6777 4.37793C17.5398 3.99857 17.3124 3.81641 16.9922 3.81641Z" fill="url(#paint0_radial_192_6834)" shape-rendering="crispEdges"/>
<path d="M16.7432 0V-1H16.7432L16.7432 0ZM23.1611 2.61523L23.86 1.89999L23.86 1.89998L23.1611 2.61523ZM25.9238 8.9707L25.4766 9.86513L26.9621 10.6079L26.9236 8.94752L25.9238 8.9707ZM25.8945 8.95605L26.3417 8.06163L24.8932 7.33736L24.8945 8.95687L25.8945 8.95605ZM24.3389 14.0859L25.1699 14.6422L25.1699 14.6422L24.3389 14.0859ZM20.1895 17.4795L20.5611 18.4079L20.5699 18.4043L20.1895 17.4795ZM16.7412 18.1445L16.7409 17.1445L16.7394 17.1445L16.7412 18.1445ZM12.834 17.2773L13.2587 16.372L12.6227 16.0737L12.1264 16.5707L12.834 17.2773ZM9.30664 20.8096L10.0134 21.5171L10.0142 21.5162L9.30664 20.8096ZM7.10742 21.7197L7.10686 22.7197H7.10694L7.10742 21.7197ZM4.90918 20.8076L4.20168 21.5143L4.20172 21.5144L4.90918 20.8076ZM4 18.6084L3 18.6078V18.6078L4 18.6084ZM4.91113 16.4102L5.61789 17.1176L5.61814 17.1174L4.91113 16.4102ZM8.43457 12.8877L9.14158 13.5949L9.63798 13.0986L9.33997 12.4631L8.43457 12.8877ZM7.5625 8.9707L6.56277 8.94752L6.5625 8.95894L6.5625 8.97036L7.5625 8.9707ZM10.3252 2.61523L9.62633 1.89999L9.62632 1.89999L10.3252 2.61523ZM16.9922 3.81641V2.81641H16.9835L16.9749 2.81656L16.9922 3.81641ZM16.5605 3.97363L15.931 3.19665L15.9306 3.19698L16.5605 3.97363ZM16.3174 4.36328L17.2585 4.7014L17.2787 4.64516L17.2921 4.58692L16.3174 4.36328ZM15.4307 6.82617L14.4884 6.49127L14.4814 6.51089L14.4753 6.53079L15.4307 6.82617ZM15.3086 7.0293L16.0157 7.7364L16.0159 7.73623L15.3086 7.0293ZM15.1055 7.15137L14.8101 6.19599L14.7912 6.20181L14.7726 6.20838L15.1055 7.15137ZM12.6025 8.06348L12.8622 9.02918L12.9052 9.01763L12.947 9.00229L12.6025 8.06348ZM12.2432 8.30566L11.4439 7.7047L11.4439 7.70472L12.2432 8.30566ZM12.1104 8.71875L13.1094 8.76316L13.1108 8.7313L13.1102 8.69942L12.1104 8.71875ZM12.2383 9.13672L11.4368 9.73471L11.4368 9.7348L12.2383 9.13672ZM12.6025 9.37891L12.9482 8.44056L12.8972 8.42175L12.8444 8.40858L12.6025 9.37891ZM15.125 10.2998L14.789 11.2417L14.8231 11.2538L14.858 11.2635L15.125 10.2998ZM15.3203 10.4121L16.0217 9.69937L16.0215 9.69916L15.3203 10.4121ZM15.4355 10.6055L14.4762 10.8878L14.4843 10.9151L14.4938 10.9418L15.4355 10.6055ZM16.3271 13.0684L17.3032 12.851L17.2893 12.7886L17.2676 12.7284L16.3271 13.0684ZM16.5752 13.4707L15.9405 14.2434L15.9406 14.2436L16.5752 13.4707ZM17.0176 13.6357L16.9939 14.6355L17.0158 14.636L17.0377 14.6355L17.0176 13.6357ZM17.4482 13.4756L18.0839 14.2475L18.0842 14.2473L17.4482 13.4756ZM17.6875 13.084L16.7482 12.7409L16.7247 12.8053L16.7101 12.8724L17.6875 13.084ZM18.5791 10.6201L19.522 10.9532L19.5286 10.9346L19.5344 10.9157L18.5791 10.6201ZM18.7012 10.417L17.9943 9.70968L17.9941 9.70988L18.7012 10.417ZM18.9043 10.2949L19.1997 11.2503L19.2176 11.2447L19.2354 11.2385L18.9043 10.2949ZM21.4268 9.37891L21.1846 8.40867L21.131 8.42204L21.0793 8.44122L21.4268 9.37891ZM21.7861 9.14258L22.5808 9.74967L22.581 9.74935L21.7861 9.14258ZM21.9189 8.7334L20.9202 8.68362L20.9184 8.71945L20.9192 8.75531L21.9189 8.7334ZM21.792 8.31641L22.5914 7.71568L22.5913 7.71544L21.792 8.31641ZM21.4268 8.07812L21.0736 9.0137L21.1342 9.03656L21.1972 9.05141L21.4268 8.07812ZM18.8799 7.15137L19.2103 6.20743L19.198 6.2033L18.8799 7.15137ZM18.6875 7.0332L17.9802 7.74009L17.9804 7.74031L18.6875 7.0332ZM18.5693 6.8418L19.5171 6.52293L19.5147 6.51579L19.5122 6.50868L18.5693 6.8418ZM17.6777 4.37793L16.7379 4.71968L16.7391 4.72285L17.6777 4.37793ZM16.7432 0V1C18.8807 1 20.9333 1.83656 22.4623 3.33049L23.1611 2.61523L23.86 1.89998C21.9575 0.0410682 19.4032 -1 16.7432 -1V0ZM23.1611 2.61523L22.4623 3.33048C23.9911 4.82427 24.8745 6.85691 24.9241 8.99389L25.9238 8.9707L26.9236 8.94752C26.8619 6.28841 25.7625 3.75895 23.86 1.89999L23.1611 2.61523ZM25.9238 8.9707L26.371 8.07628L26.3417 8.06163L25.8945 8.95605L25.4473 9.85048L25.4766 9.86513L25.9238 8.9707ZM25.8945 8.95605L24.8945 8.95687C24.8959 10.585 24.4133 12.177 23.5079 13.5297L24.3389 14.0859L25.1699 14.6422C26.2962 12.9595 26.8962 10.9797 26.8945 8.95524L25.8945 8.95605ZM24.3389 14.0859L23.5079 13.5297C22.6024 14.8824 21.3147 15.9353 19.809 16.5547L20.1895 17.4795L20.5699 18.4043C22.4422 17.6342 24.0436 16.3248 25.1699 14.6422L24.3389 14.0859ZM20.1895 17.4795L19.8178 16.5511C18.8393 16.9428 17.795 17.1442 16.7409 17.1445L16.7412 18.1445L16.7415 19.1445C18.0499 19.1441 19.3463 18.8941 20.5611 18.4079L20.1895 17.4795ZM16.7412 18.1445L16.7394 17.1445C15.5365 17.1468 14.3477 16.8829 13.2587 16.372L12.834 17.2773L12.4093 18.1827C13.7652 18.8188 15.2453 19.1473 16.7431 19.1445L16.7412 18.1445ZM12.834 17.2773L12.1264 16.5707L8.59904 20.103L9.30664 20.8096L10.0142 21.5162L13.5416 17.984L12.834 17.2773ZM9.30664 20.8096L8.59993 20.1021C8.20386 20.4977 7.6668 20.72 7.1079 20.7197L7.10742 21.7197L7.10694 22.7197C8.19712 22.7203 9.24268 22.2869 10.0134 21.5171L9.30664 20.8096ZM7.10742 21.7197L7.10798 20.7197C6.54878 20.7194 6.01209 20.4967 5.61664 20.1009L4.90918 20.8076L4.20172 21.5144C4.97179 22.2852 6.01694 22.7191 7.10686 22.7197L7.10742 21.7197ZM4.90918 20.8076L5.61668 20.1009C5.22153 19.7053 4.99969 19.1686 5 18.609L4 18.6084L3 18.6078C2.99939 19.6974 3.43129 20.7431 4.20168 21.5143L4.90918 20.8076ZM4 18.6084L5 18.609C5.00032 18.049 5.22264 17.5125 5.61789 17.1176L4.91113 16.4102L4.20437 15.7027C3.433 16.4733 3.00062 17.5187 3 18.6078L4 18.6084ZM4.91113 16.4102L5.61814 17.1174L9.14158 13.5949L8.43457 12.8877L7.72756 12.1805L4.20412 15.703L4.91113 16.4102ZM8.43457 12.8877L9.33997 12.4631C8.82756 11.3704 8.56209 10.178 8.5625 8.97105L7.5625 8.9707L6.5625 8.97036C6.56199 10.471 6.89205 11.9536 7.52917 13.3123L8.43457 12.8877ZM7.5625 8.9707L8.56223 8.99389C8.6118 6.85692 9.49528 4.82427 11.0241 3.33048L10.3252 2.61523L9.62632 1.89999C7.72381 3.75895 6.62444 6.28842 6.56277 8.94752L7.5625 8.9707ZM10.3252 2.61523L11.0241 3.33048C12.553 1.83656 14.6057 1.00001 16.7432 1L16.7432 0L16.7432 -1C14.0831 -0.999983 11.5288 0.0410666 9.62633 1.89999L10.3252 2.61523ZM16.9922 3.81641L16.9749 2.81656C16.594 2.82314 16.2264 2.95733 15.931 3.19665L16.5605 3.97363L17.1901 4.75061C17.1391 4.79188 17.0759 4.81511 17.0095 4.81626L16.9922 3.81641ZM16.5605 3.97363L15.9306 3.19698C15.6358 3.43612 15.4281 3.76765 15.3427 4.13964L16.3174 4.36328L17.2921 4.58692C17.2771 4.65221 17.2409 4.70936 17.1905 4.75029L16.5605 3.97363ZM16.3174 4.36328L15.3763 4.02516C15.0836 4.83975 14.7794 5.67268 14.4884 6.49127L15.4307 6.82617L16.3729 7.16107C16.6632 6.34429 16.9601 5.53203 17.2585 4.7014L16.3174 4.36328ZM15.4307 6.82617L14.4753 6.53079C14.4988 6.4547 14.541 6.38268 14.6013 6.32236L15.3086 7.0293L16.0159 7.73623C16.1894 7.56262 16.3152 7.35068 16.386 7.12155L15.4307 6.82617ZM15.3086 7.0293L14.6015 6.32219C14.662 6.26169 14.7342 6.21945 14.8101 6.19599L15.1055 7.15137L15.4008 8.10675C15.6299 8.03594 15.8419 7.91023 16.0157 7.7364L15.3086 7.0293ZM15.1055 7.15137L14.7726 6.20838C13.9274 6.50671 13.0834 6.8219 12.2581 7.12466L12.6025 8.06348L12.947 9.00229C13.7869 8.69415 14.6085 8.38722 15.4383 8.09436L15.1055 7.15137ZM12.6025 8.06348L12.3429 7.09777C11.9868 7.19352 11.6689 7.40537 11.4439 7.7047L12.2432 8.30566L13.0424 8.90663C12.9958 8.96864 12.9316 9.01052 12.8622 9.02918L12.6025 8.06348ZM12.2432 8.30566L11.4439 7.70472C11.2183 8.00469 11.1034 8.36952 11.1105 8.73808L12.1104 8.71875L13.1102 8.69942C13.1115 8.77087 13.0894 8.84415 13.0425 8.90661L12.2432 8.30566ZM12.1104 8.71875L11.1113 8.67434C11.0945 9.0521 11.2075 9.42739 11.4368 9.73471L12.2383 9.13672L13.0398 8.53873C13.0896 8.60551 13.1128 8.6852 13.1094 8.76316L12.1104 8.71875ZM12.2383 9.13672L11.4368 9.7348C11.6649 10.0403 11.9916 10.2572 12.3607 10.3492L12.6025 9.37891L12.8444 8.40858C12.9222 8.42799 12.9912 8.47364 13.0397 8.53863L12.2383 9.13672ZM12.6025 9.37891L12.2568 10.3172C13.0969 10.6267 13.9406 10.939 14.789 11.2417L15.125 10.2998L15.461 9.35794C14.6247 9.05962 13.7929 8.75174 12.9482 8.44056L12.6025 9.37891ZM15.125 10.2998L14.858 11.2635C14.7714 11.2395 14.6886 11.1934 14.6191 11.1251L15.3203 10.4121L16.0215 9.69916C15.8435 9.52401 15.6254 9.40077 15.392 9.33611L15.125 10.2998ZM15.3203 10.4121L14.6189 11.1249C14.5486 11.0557 14.5013 10.9731 14.4762 10.8878L15.4355 10.6055L16.3948 10.3231C16.3267 10.0917 16.2007 9.87544 16.0217 9.69937L15.3203 10.4121ZM15.4355 10.6055L14.4938 10.9418C14.7899 11.7708 15.0939 12.5982 15.3867 13.4083L16.3271 13.0684L17.2676 12.7284C16.9693 11.9031 16.6723 11.0952 16.3773 10.2691L15.4355 10.6055ZM16.3271 13.0684L15.3511 13.2858C15.4354 13.6644 15.645 14.0007 15.9405 14.2434L16.5752 13.4707L17.2099 12.698C17.2554 12.7353 17.2892 12.7881 17.3032 12.851L16.3271 13.0684ZM16.5752 13.4707L15.9406 14.2436C16.2358 14.4859 16.6058 14.6263 16.9939 14.6355L17.0176 13.6357L17.0413 12.636C17.106 12.6376 17.1646 12.6608 17.2097 12.6978L16.5752 13.4707ZM17.0176 13.6357L17.0377 14.6355C17.4232 14.6278 17.7911 14.4887 18.0839 14.2475L17.4482 13.4756L16.8125 12.7037C16.8623 12.6627 16.9267 12.6374 16.9974 12.6359L17.0176 13.6357ZM17.4482 13.4756L18.0842 14.2473C18.3774 14.0057 18.5835 13.6713 18.6649 13.2956L17.6875 13.084L16.7101 12.8724C16.7249 12.8042 16.7619 12.7454 16.8123 12.7039L17.4482 13.4756ZM17.6875 13.084L18.6268 13.4271C18.9265 12.6067 19.2291 11.7823 19.522 10.9532L18.5791 10.6201L17.6362 10.287C17.3477 11.1035 17.0496 11.9157 16.7482 12.7409L17.6875 13.084ZM18.5791 10.6201L19.5344 10.9157C19.511 10.9913 19.4689 11.0635 19.4083 11.1241L18.7012 10.417L17.9941 9.70988C17.8202 9.88378 17.6945 10.0958 17.6238 10.3246L18.5791 10.6201ZM18.7012 10.417L19.4081 11.1243C19.3478 11.1845 19.2758 11.2268 19.1997 11.2503L18.9043 10.2949L18.6089 9.33954C18.3798 9.41039 18.1678 9.53621 17.9943 9.70968L18.7012 10.417ZM18.9043 10.2949L19.2354 11.2385C20.0866 10.9398 20.9361 10.6272 21.7743 10.3166L21.4268 9.37891L21.0793 8.44122C20.2424 8.75135 19.4068 9.05882 18.5732 9.35132L18.9043 10.2949ZM21.4268 9.37891L21.6689 10.3491C22.0324 10.2584 22.3538 10.0467 22.5808 9.74967L21.7861 9.14258L20.9915 8.53549C21.0394 8.47282 21.1073 8.42798 21.1846 8.40867L21.4268 9.37891ZM21.7861 9.14258L22.581 9.74935C22.8096 9.44988 22.9269 9.08318 22.9187 8.71148L21.9189 8.7334L20.9192 8.75531C20.9175 8.67852 20.9416 8.6008 20.9913 8.5358L21.7861 9.14258ZM21.9189 8.7334L22.9177 8.78317C22.9366 8.4039 22.824 8.0252 22.5914 7.71568L21.792 8.31641L20.9925 8.91713C20.9398 8.84699 20.9162 8.76384 20.9202 8.68362L21.9189 8.7334ZM21.792 8.31641L22.5913 7.71544C22.3597 7.40749 22.028 7.19252 21.6563 7.10484L21.4268 8.07812L21.1972 9.05141C21.117 9.0325 21.0443 8.98591 20.9927 8.91737L21.792 8.31641ZM21.4268 8.07812L21.7799 7.14255C20.9286 6.82126 20.0722 6.50918 19.2102 6.20751L18.8799 7.15137L18.5495 8.09523C19.3954 8.3913 20.2367 8.69783 21.0736 9.0137L21.4268 8.07812ZM18.8799 7.15137L19.198 6.2033C19.265 6.22579 19.3338 6.26531 19.3946 6.3261L18.6875 7.0332L17.9804 7.74031C18.1489 7.9088 18.3504 8.02849 18.5618 8.09944L18.8799 7.15137ZM18.6875 7.0332L19.3948 6.32632C19.4526 6.38414 19.4933 6.45215 19.5171 6.52293L18.5693 6.8418L17.6215 7.16067C17.6938 7.37545 17.815 7.57479 17.9802 7.74009L18.6875 7.0332ZM18.5693 6.8418L19.5122 6.50868C19.2194 5.67986 18.9173 4.85188 18.6164 4.03301L17.6777 4.37793L16.7391 4.72285C17.0393 5.53966 17.3379 6.3582 17.6265 7.17491L18.5693 6.8418ZM17.6777 4.37793L18.6175 4.03619C18.5083 3.73584 18.3308 3.42064 18.0349 3.17961C17.7233 2.92579 17.3566 2.81641 16.9922 2.81641V3.81641V4.81641C16.9767 4.81641 16.9421 4.81403 16.8967 4.79877C16.8499 4.78307 16.8068 4.75876 16.7717 4.73021C16.7041 4.6751 16.7092 4.64066 16.7379 4.71967L17.6777 4.37793Z" fill="white" mask="url(#path-1-inside-1_192_6834)"/>
</g>
<defs>
<filter id="filter0_d_192_6834" x="0" y="0" width="29.9238" height="29.7197" filterUnits="userSpaceOnUse" color-interpolation-filters="sRGB">
<feFlood flood-opacity="0" result="BackgroundImageFix"/>
<feColorMatrix in="SourceAlpha" type="matrix" values="0 0 0 0 0 0 0 0 0 0 0 0 0 0 0 0 0 0 127 0" result="hardAlpha"/>
<feOffset dy="4"/>
<feGaussianBlur stdDeviation="2"/>
<feComposite in2="hardAlpha" operator="out"/>
<feColorMatrix type="matrix" values="0 0 0 0 0 0 0 0 0 0 0 0 0 0 0 0 0 0 0.25 0"/>
<feBlend mode="normal" in2="BackgroundImageFix" result="effect1_dropShadow_192_6834"/>
<feBlend mode="normal" in="SourceGraphic" in2="effect1_dropShadow_192_6834" result="shape"/>
</filter>
<radialGradient id="paint0_radial_192_6834" cx="0" cy="0" r="1" gradientUnits="userSpaceOnUse" gradientTransform="translate(14.9619 10.8599) rotate(90) scale(10.8599 10.9619)">
<stop stop-color="white"/>
<stop offset="1" stop-color="white" stop-opacity="0.85"/>
</radialGradient>
</defs>
</svg>
