<svg width="20" height="20" viewBox="0 0 20 20" fill="none" xmlns="http://www.w3.org/2000/svg">
<path d="M9.39415 16.9275C9.31897 17.007 9.26019 17.1006 9.22118 17.2029C9.18216 17.3052 9.16368 17.4141 9.16677 17.5235C9.16987 17.6329 9.19448 17.7407 9.23922 17.8406C9.28395 17.9405 9.34792 18.0306 9.42748 18.1058C9.50704 18.181 9.60063 18.2397 9.7029 18.2788C9.80518 18.3178 9.91413 18.3363 10.0236 18.3332C10.133 18.3301 10.2407 18.3055 10.3406 18.2607C10.4405 18.216 10.5306 18.152 10.6058 18.0725L17.6891 10.5725C17.8354 10.4177 17.9169 10.2129 17.9169 9.99996C17.9169 9.78703 17.8354 9.58218 17.6891 9.42746L10.6058 1.92662C10.5311 1.84532 10.441 1.77967 10.3408 1.73348C10.2405 1.6873 10.132 1.66149 10.0217 1.65757C9.91138 1.65366 9.80137 1.6717 9.69808 1.71065C9.59478 1.74961 9.50025 1.8087 9.41998 1.88449C9.33972 1.96029 9.27531 2.05128 9.2305 2.15217C9.1857 2.25307 9.16139 2.36187 9.15899 2.47224C9.15658 2.58261 9.17613 2.69236 9.2165 2.79511C9.25687 2.89787 9.31726 2.99157 9.39415 3.07079L15.9375 9.99996L9.39415 16.9275Z" fill="white"/>
</svg>
