<svg width="40" height="40" viewBox="0 0 40 40" fill="none" xmlns="http://www.w3.org/2000/svg">
<path d="M26.5937 4.62025L26.5926 4.62096C28.7105 5.15028 29.8508 7.2367 29.3788 9.59131L29.7236 9.6775C30.505 9.87277 31.3137 10.0749 32.1152 10.3064L32.1161 10.3066C33.1537 10.6159 34.0188 11.3637 34.5288 12.3893C35.0388 13.4149 35.1546 14.6382 34.8515 15.7988L34.1447 18.6268C34.0609 18.962 33.8601 19.2546 33.5862 19.4395C33.3122 19.6245 32.9865 19.6871 32.6808 19.6108C32.375 19.5344 32.1162 19.3256 31.9614 19.0334C31.8069 18.7415 31.7682 18.3889 31.8519 18.0538L32.5549 15.2409C32.6978 14.7303 32.6535 14.1891 32.4328 13.7357C32.2397 13.3391 31.9254 13.0385 31.5465 12.8801L31.3802 12.8204C31.0102 12.7085 30.6286 12.6053 30.2456 12.5066L29.1016 12.2227L27.9107 11.9251C27.5225 11.7827 27.2045 11.484 27.0184 11.0891C26.8325 10.6944 26.7915 10.231 26.9013 9.78951L27.0308 9.27127C27.1628 8.74332 27.117 8.27534 26.9277 7.91175C26.7386 7.54877 26.4037 7.28407 25.9471 7.1674C23.2106 6.47052 20.4336 5.77649 17.6931 5.10458L17.6922 5.10435C17.2342 4.98997 16.8167 5.06647 16.4802 5.29771C16.1432 5.52953 15.8824 5.92061 15.7459 6.44389L15.6135 6.9735C15.4974 7.44049 15.2201 7.84845 14.8407 8.10807C14.4612 8.36772 14.0098 8.45838 13.5845 8.35781L12.9251 8.19301C12.0953 7.98563 11.3111 7.78913 10.513 7.57407L10.5111 7.57359C10.2645 7.49492 10.0025 7.47468 9.74271 7.51444C9.54792 7.54425 9.35729 7.60765 9.1776 7.70136L9.00162 7.80535C8.75663 7.97107 8.54209 8.18828 8.37094 8.44395C8.19979 8.69968 8.0759 8.98874 8.00673 9.29309L8.00649 9.29404C7.26774 12.3433 6.49133 15.4304 5.74194 18.4196L4.70414 22.5722C4.52929 23.2721 4.5782 23.8715 4.82175 24.3329C5.06486 24.7934 5.50538 25.1237 6.1283 25.2795L16.4884 27.8687C16.7941 27.9451 17.0531 28.153 17.208 28.4451C17.3627 28.7371 17.4012 29.0895 17.3175 29.4247C17.2337 29.7599 17.0338 30.0528 16.76 30.2376C16.4859 30.4227 16.1596 30.4842 15.8538 30.4078L15.8178 30.3988L15.8166 30.3753L5.49254 27.7951C4.23699 27.4812 3.29076 26.7253 2.74657 25.6966C2.20258 24.6681 2.06177 23.3698 2.41043 21.9748L3.44823 17.8222C3.8209 16.331 4.19985 14.8149 4.57837 13.2921L5.70638 8.72222C5.86062 8.08074 6.12913 7.4735 6.4952 6.93535C6.86144 6.397 7.31832 5.93804 7.8397 5.58733L8.03391 5.46676C8.49059 5.19837 8.98387 5.01828 9.49098 4.93704C10.0707 4.84419 10.6562 4.88195 11.2108 5.04776L11.2098 5.04752C11.9589 5.26039 12.7242 5.44674 13.5166 5.63711C14.202 3.33331 16.1896 2.03064 18.3161 2.55152C21.0635 3.22517 23.8502 3.92162 26.5937 4.62025Z" fill="white" stroke="white" stroke-width="0.1"/>
<path d="M35.2945 26.6402C35.1394 27.2855 34.7837 27.865 34.2787 28.2956C33.7736 28.7262 33.145 28.9856 32.4833 29.0367L24.3011 29.7439C24.0933 29.7633 23.884 29.7602 23.6769 29.7348L22.2455 35.462C22.1297 35.9254 21.8347 36.3239 21.4253 36.57C21.0159 36.816 20.5255 36.8895 20.0619 36.7743C19.599 36.6573 19.2013 36.3617 18.9559 35.9521C18.7105 35.5426 18.6373 35.0524 18.7525 34.589L20.9122 25.9473C20.9242 25.8996 20.9355 25.8542 20.9474 25.8066L22.2421 20.6261C22.2534 20.5808 22.2653 20.5331 22.2767 20.4877C22.3216 20.337 22.3785 20.19 22.4468 20.0483C22.6405 19.638 22.9197 19.274 23.2657 18.9806C23.6118 18.6872 24.0165 18.4712 24.4529 18.3472C24.8893 18.2232 25.3472 18.1941 25.7958 18.2617C26.2444 18.3293 26.6733 18.4921 27.0538 18.7392L33.9413 23.2126C34.4993 23.5684 34.9306 24.0914 35.1736 24.707C35.4167 25.3225 35.459 25.9992 35.2945 26.6402Z" fill="white"/>
<path d="M19.1975 12.086C20.1666 12.0689 21.1256 12.2851 21.9931 12.7173C22.8608 13.1496 23.6117 13.7848 24.1818 14.5688L24.2481 14.6699C24.3898 14.9119 24.444 15.1966 24.4 15.4759C24.3496 15.7954 24.1745 16.082 23.9131 16.2723C23.6516 16.4624 23.3253 16.5408 23.0059 16.4905C22.6865 16.4401 22.3998 16.265 22.2096 16.0036C21.8699 15.5378 21.4233 15.1606 20.9071 14.904C20.3907 14.6473 19.8197 14.5189 19.2432 14.5294C18.6668 14.54 18.101 14.6886 17.5945 14.9639C17.0879 15.2393 16.6548 15.6331 16.3324 16.1111C16.01 16.5891 15.8078 17.1383 15.7423 17.7111C15.6768 18.2838 15.7506 18.864 15.9568 19.4024C16.1629 19.9408 16.4957 20.4219 16.927 20.8045C17.3583 21.187 17.8751 21.4604 18.4342 21.6009C18.7478 21.6793 19.018 21.8786 19.1843 22.1558C19.3507 22.433 19.3994 22.7651 19.321 23.0788C19.2426 23.3924 19.0434 23.6626 18.7662 23.8289C18.4898 23.9947 18.159 24.0428 17.8462 23.9654L17.846 23.9664L17.8432 23.9657L17.8434 23.9647C16.9037 23.73 16.0342 23.2734 15.3087 22.6317C14.5827 21.9894 14.0222 21.1815 13.6748 20.2765C13.3273 19.3716 13.2028 18.396 13.3124 17.4329C13.422 16.4699 13.7628 15.5473 14.3046 14.7437C14.8465 13.94 15.5745 13.2784 16.4262 12.8158C17.2778 12.3532 18.2285 12.1032 19.1975 12.086Z" fill="white" stroke="white" stroke-width="0.1"/>
</svg>
