<svg width="48" height="48" viewBox="0 0 48 48" fill="none" xmlns="http://www.w3.org/2000/svg">
<g filter="url(#filter0_d_72_5084)">
<path d="M24 40C35.0457 40 44 31.0457 44 20C44 8.95431 35.0457 0 24 0C12.9543 0 4 8.95431 4 20C4 31.0457 12.9543 40 24 40Z" fill="url(#paint0_radial_72_5084)" shape-rendering="crispEdges"/>
<path d="M24 0.5C34.7696 0.5 43.5 9.23045 43.5 20C43.5 30.7696 34.7696 39.5 24 39.5C13.2304 39.5 4.5 30.7696 4.5 20C4.5 9.23045 13.2304 0.5 24 0.5Z" stroke="white" shape-rendering="crispEdges"/>
</g>
<g filter="url(#filter1_i_72_5084)">
<path d="M23.998 5C24.5528 5.00015 25.0028 5.45084 25.0029 6.00684V9.42871C26.3034 9.54737 27.5803 9.89474 28.7715 10.4658C30.8319 11.4536 32.5349 13.0568 33.6455 15.0537C34.3273 16.2798 34.7642 17.6176 34.9434 18.9932H37.9932C38.5493 18.9932 39 19.4432 39 19.998C38.9998 20.5528 38.5492 21.0029 37.9932 21.0029H35.0195C35.0087 21.207 34.9939 21.4113 34.9717 21.6152C34.6966 24.1128 33.5784 26.4419 31.8018 28.2188C30.0249 29.9956 27.695 31.1145 25.1973 31.3896C25.1326 31.3967 25.0676 31.4003 25.0029 31.4062V33.9932C25.0029 34.5492 24.5528 34.9999 23.998 35C23.4432 35 22.9932 34.5493 22.9932 33.9932V31.4062C21.4712 31.2668 19.9864 30.814 18.6367 30.0635C16.6397 28.9529 15.0357 27.2499 14.0479 25.1895C13.4157 23.8709 13.0572 22.4472 12.9805 21.0029H10.0068C9.45085 21.0028 9.00016 20.5528 9 19.998C9 19.4432 9.45075 18.9933 10.0068 18.9932H13.0566C13.0755 18.8485 13.0965 18.7038 13.1211 18.5596C13.5058 16.3072 14.5806 14.23 16.1963 12.6143C17.812 10.9985 19.8893 9.92387 22.1416 9.53906C22.4245 9.49073 22.7088 9.45281 22.9932 9.42676V6.00684C22.9933 5.45075 23.4432 5 23.998 5ZM13.377 21.0029C13.3991 21.406 13.4443 21.8091 13.5127 22.21C13.8834 24.3812 14.919 26.3839 16.4766 27.9414C18.0341 29.4989 20.0367 30.5346 22.208 30.9053C22.469 30.9498 22.731 30.9839 22.9932 31.0088V27.4277C19.7483 26.9658 17.2135 24.3057 16.9434 21.0029H13.377ZM31.0566 21.0029C30.7863 24.3071 28.2497 26.9674 25.0029 27.4277V31.0078C26.2437 30.8901 27.4618 30.556 28.5986 30.0107C30.5847 29.0581 32.2258 27.5122 33.2959 25.5869C34.0821 24.1722 34.5302 22.604 34.6182 21.0029H31.0566ZM25.0029 13.4072C27.9698 13.8278 30.3457 16.0856 30.9395 18.9932H34.5371C34.2237 16.689 33.1664 14.5473 31.5186 12.8994C29.8067 11.1875 27.5617 10.1108 25.1553 9.8457C25.1045 9.84015 25.0537 9.83587 25.0029 9.83105V13.4072ZM22.9932 9.83008C21.5391 9.9681 20.1213 10.405 18.8311 11.1221C16.9057 12.1921 15.3598 13.8333 14.4072 15.8193C13.9239 16.8271 13.6061 17.8986 13.458 18.9932H17.0605C17.654 16.0869 20.0281 13.8293 22.9932 13.4072V9.83008Z" fill="#FF7F50"/>
</g>
<defs>
<filter id="filter0_d_72_5084" x="0" y="0" width="48" height="48" filterUnits="userSpaceOnUse" color-interpolation-filters="sRGB">
<feFlood flood-opacity="0" result="BackgroundImageFix"/>
<feColorMatrix in="SourceAlpha" type="matrix" values="0 0 0 0 0 0 0 0 0 0 0 0 0 0 0 0 0 0 127 0" result="hardAlpha"/>
<feOffset dy="4"/>
<feGaussianBlur stdDeviation="2"/>
<feComposite in2="hardAlpha" operator="out"/>
<feColorMatrix type="matrix" values="0 0 0 0 0 0 0 0 0 0 0 0 0 0 0 0 0 0 0.25 0"/>
<feBlend mode="normal" in2="BackgroundImageFix" result="effect1_dropShadow_72_5084"/>
<feBlend mode="normal" in="SourceGraphic" in2="effect1_dropShadow_72_5084" result="shape"/>
</filter>
<filter id="filter1_i_72_5084" x="9" y="5" width="30" height="34" filterUnits="userSpaceOnUse" color-interpolation-filters="sRGB">
<feFlood flood-opacity="0" result="BackgroundImageFix"/>
<feBlend mode="normal" in="SourceGraphic" in2="BackgroundImageFix" result="shape"/>
<feColorMatrix in="SourceAlpha" type="matrix" values="0 0 0 0 0 0 0 0 0 0 0 0 0 0 0 0 0 0 127 0" result="hardAlpha"/>
<feOffset dy="4"/>
<feGaussianBlur stdDeviation="2"/>
<feComposite in2="hardAlpha" operator="arithmetic" k2="-1" k3="1"/>
<feColorMatrix type="matrix" values="0 0 0 0 0 0 0 0 0 0 0 0 0 0 0 0 0 0 0.25 0"/>
<feBlend mode="normal" in2="shape" result="effect1_innerShadow_72_5084"/>
</filter>
<radialGradient id="paint0_radial_72_5084" cx="0" cy="0" r="1" gradientUnits="userSpaceOnUse" gradientTransform="translate(24 20) rotate(90) scale(20)">
<stop stop-color="white"/>
<stop offset="1" stop-color="white" stop-opacity="0.85"/>
</radialGradient>
</defs>
</svg>
