<svg width="40" height="40" viewBox="0 0 40 40" fill="none" xmlns="http://www.w3.org/2000/svg">
<path d="M17.7979 2.04102C18.5471 -0.014178 21.4523 -0.0135671 22.2012 2.04199L26.3242 13.376L26.4043 13.5957L26.624 13.6758L37.958 17.7988V17.7979C40.0139 18.5467 40.0138 21.4522 37.958 22.2012L26.624 26.3242L26.4043 26.4043L26.3242 26.624L22.2012 37.958C21.4522 40.0138 18.5467 40.0139 17.7979 37.958H17.7988L13.6758 26.624L13.5957 26.4043L13.376 26.3242L2.04199 22.2012H2.04102C-0.0138994 21.4517 -0.0135677 18.5466 2.04199 17.7979V17.7988L13.376 13.6758L13.5957 13.5957L13.6758 13.376L17.7988 2.04199L17.7979 2.04102Z" fill="url(#paint0_linear_72_5599)" stroke="#FF7F50"/>
<defs>
<linearGradient id="paint0_linear_72_5599" x1="20" y1="0" x2="20" y2="40" gradientUnits="userSpaceOnUse">
<stop stop-color="#FF7F50"/>
<stop offset="1" stop-color="#FF7F50" stop-opacity="0.8"/>
</linearGradient>
</defs>
</svg>
