<svg width="26" height="30" viewBox="0 0 26 30" fill="none" xmlns="http://www.w3.org/2000/svg">
<g filter="url(#filter0_d_192_6829)">
<path d="M21.9999 7.40546C22.0062 8.24751 21.7432 9.06974 21.2487 9.75358C20.7543 10.4374 20.054 10.9474 19.249 11.2101L9.35962 14.5911C9.10817 14.6766 8.84852 14.7361 8.58479 14.7688V19.7217C8.58479 20.326 8.34328 20.9054 7.91337 21.3327C7.48346 21.7599 6.90037 22 6.29239 22C5.68441 22 5.10134 21.7599 4.67143 21.3327C4.24152 20.9054 4 20.326 4 19.7217V10.9686C4 10.9048 4 10.8456 4 10.7864V4.02445C4 3.96521 4 3.90602 4 3.84223C4.00859 3.64015 4.03312 3.43901 4.07336 3.24074C4.18581 2.67717 4.41842 2.14409 4.75552 1.67733C5.09262 1.21057 5.5264 0.820968 6.02767 0.534751C6.52894 0.248533 7.08608 0.0723539 7.6616 0.0180263C8.23713 -0.0363013 8.81768 0.0325133 9.36421 0.219821L19.2536 3.60072C20.0578 3.86415 20.757 4.37457 21.2506 5.05834C21.7441 5.74211 22.0065 6.56397 21.9999 7.40546Z" fill="url(#paint0_radial_192_6829)" shape-rendering="crispEdges"/>
<path d="M7.70898 0.515625C8.21371 0.468038 8.72296 0.528168 9.20215 0.692383V0.693359L19.0918 4.07422L19.0977 4.07617C19.8016 4.30675 20.4133 4.75307 20.8447 5.35059C21.2761 5.94823 21.5058 6.66658 21.5 7.40137V7.40918C21.5055 8.14451 21.2759 8.86318 20.8438 9.46094C20.4115 10.0587 19.7986 10.5044 19.0938 10.7344L19.0869 10.7373L9.19824 14.1182C8.97937 14.1926 8.75317 14.244 8.52344 14.2725L8.08496 14.3271V19.7217C8.08496 20.1923 7.89632 20.6438 7.56055 20.9775C7.22462 21.3114 6.76833 21.5 6.29199 21.5C5.81581 21.4999 5.35927 21.3113 5.02344 20.9775C4.68791 20.6438 4.5 20.1921 4.5 19.7217V3.86328C4.50748 3.68755 4.52848 3.51228 4.56348 3.33984V3.33887C4.66187 2.84575 4.86592 2.37849 5.16113 1.96973C5.45629 1.56114 5.83608 1.2196 6.27539 0.96875C6.71486 0.717821 7.20408 0.563287 7.70898 0.515625Z" stroke="white" shape-rendering="crispEdges"/>
</g>
<defs>
<filter id="filter0_d_192_6829" x="0" y="0" width="26" height="30" filterUnits="userSpaceOnUse" color-interpolation-filters="sRGB">
<feFlood flood-opacity="0" result="BackgroundImageFix"/>
<feColorMatrix in="SourceAlpha" type="matrix" values="0 0 0 0 0 0 0 0 0 0 0 0 0 0 0 0 0 0 127 0" result="hardAlpha"/>
<feOffset dy="4"/>
<feGaussianBlur stdDeviation="2"/>
<feComposite in2="hardAlpha" operator="out"/>
<feColorMatrix type="matrix" values="0 0 0 0 0 0 0 0 0 0 0 0 0 0 0 0 0 0 0.25 0"/>
<feBlend mode="normal" in2="BackgroundImageFix" result="effect1_dropShadow_192_6829"/>
<feBlend mode="normal" in="SourceGraphic" in2="effect1_dropShadow_192_6829" result="shape"/>
</filter>
<radialGradient id="paint0_radial_192_6829" cx="0" cy="0" r="1" gradientUnits="userSpaceOnUse" gradientTransform="translate(13 11) rotate(90) scale(11 9)">
<stop stop-color="white"/>
<stop offset="1" stop-color="white" stop-opacity="0.85"/>
</radialGradient>
</defs>
</svg>
