<svg width="20" height="20" viewBox="0 0 20 20" fill="none" xmlns="http://www.w3.org/2000/svg">
<path d="M1.17067 8.19432L17.5251 0.331377C19.7029 -0.508163 20.4942 0.263125 19.6961 2.46777L12.1277 18.808C11.9926 19.1808 11.7402 19.4987 11.409 19.7129C11.0779 19.9271 10.6862 20.0259 10.2942 19.9942C9.90209 19.9624 9.53116 19.8019 9.2381 19.5371C8.94503 19.2723 8.74604 18.9179 8.67155 18.5282C8.14399 15.798 4.65398 12.2692 1.90796 11.7573L1.46154 11.6686C1.0762 11.5955 0.725202 11.397 0.462362 11.1034C0.199522 10.8098 0.0393695 10.4374 0.00636494 10.0431C-0.0266396 9.64883 0.06934 9.25454 0.279649 8.92061C0.489959 8.58669 0.802935 8.33154 1.17067 8.19432Z" fill="white"/>
</svg>
