<svg width="26" height="16" viewBox="0 0 26 16" fill="none" xmlns="http://www.w3.org/2000/svg">
<path d="M26 7.93746V8.44855C26 9.17179 25.5789 9.78656 24.9296 10.2012C25.7342 10.8232 26.1647 11.7441 25.92 12.612L25.7765 13.0942C25.3813 14.4804 23.4241 15.0108 21.7773 14.1815L20.2812 13.4317C19.8558 13.2212 19.4801 12.9185 19.1802 12.5445C18.9389 12.8886 18.6698 13.2111 18.3756 13.5088C17.5932 14.3118 16.6512 14.9326 15.6136 15.3288C14.576 15.7251 13.4673 15.8876 12.363 15.8053C11.2586 15.7229 10.1845 15.3976 9.21383 14.8516C8.24317 14.3055 7.39873 13.5515 6.738 12.641C6.45213 12.9673 6.10695 13.2334 5.72174 13.4245L4.22558 14.1742C2.57885 15.0035 0.631008 14.4732 0.226384 13.0869L0.0828579 12.6048C-0.152389 11.7465 0.268722 10.8256 1.07327 10.194C0.423985 9.77932 0.00288208 9.15732 0.00288208 8.44131V7.93746C0.0132505 7.59598 0.106971 7.26261 0.27546 6.96781C0.443949 6.67301 0.681828 6.42619 0.967388 6.2499C0.261648 5.68577 -0.140606 4.86369 0.0452391 4.05607L0.158153 3.55942C0.471031 2.20455 2.27536 1.54641 3.93856 2.18527L5.49121 2.78556C5.88189 2.93367 6.24297 3.15341 6.55685 3.43406C7.26949 2.36734 8.22692 1.49633 9.34495 0.897587C10.463 0.298841 11.7074 -0.00930872 12.9688 0.000214193C14.2303 0.0097371 15.4701 0.336647 16.5794 0.952207C17.6887 1.56777 18.6335 2.45313 19.3308 3.5305C19.6676 3.20049 20.0683 2.9467 20.507 2.78556L22.0573 2.18527C23.7228 1.54641 25.5248 2.20455 25.8377 3.55942L25.9506 4.05607C26.1365 4.86369 25.7412 5.68577 25.0284 6.2499C25.3153 6.42532 25.5546 6.67178 25.7243 6.96663C25.8941 7.26149 25.9889 7.5953 26 7.93746Z" fill="url(#paint0_radial_256_4313)"/>
<defs>
<radialGradient id="paint0_radial_256_4313" cx="0" cy="0" r="1" gradientUnits="userSpaceOnUse" gradientTransform="translate(13 7.91304) rotate(90) scale(7.91304 13)">
<stop stop-color="white"/>
<stop offset="1" stop-color="white" stop-opacity="0.85"/>
</radialGradient>
</defs>
</svg>
