<svg width="16" height="10" viewBox="0 0 16 10" fill="none" xmlns="http://www.w3.org/2000/svg">
<path d="M7.97656 0.5C8.66625 0.505346 9.34579 0.688996 9.95508 1.03613C10.5644 1.38334 11.0863 1.88423 11.4727 2.49707L11.8076 3.02832L12.25 2.58301C12.4078 2.42426 12.5942 2.30362 12.7959 2.22754L12.8047 2.22461L13.7578 1.84473C14.1608 1.68634 14.5665 1.6956 14.874 1.81055C15.1809 1.92526 15.3604 2.12924 15.4121 2.3584L15.4814 2.6709V2.67188C15.5433 2.94777 15.4221 3.28911 15.0869 3.56152L14.5449 4.00098L15.1367 4.37207C15.2406 4.43732 15.3299 4.53127 15.3945 4.64648C15.443 4.73304 15.476 4.82923 15.4912 4.92969L15.5 5.03125V5.33789C15.5 5.58665 15.3625 5.83372 15.0674 6.02734L14.4883 6.40723L15.0303 6.83789C15.4195 7.14688 15.5503 7.53718 15.4688 7.83594L15.3818 8.13477L15.3809 8.13965C15.3167 8.37087 15.1173 8.5688 14.7861 8.66113C14.4546 8.75345 14.0298 8.72287 13.6309 8.5166H13.6299L12.71 8.04199L12.707 8.04102C12.5122 7.94195 12.3377 7.79878 12.1973 7.61914L11.7764 7.0791L11.3906 7.64453C11.2577 7.8391 11.1098 8.02158 10.9482 8.18945L10.9453 8.19141C10.5132 8.64672 9.99469 8.9976 9.42578 9.2207C8.85712 9.44368 8.25031 9.53447 7.64648 9.48828C7.04246 9.44203 6.45323 9.25922 5.91992 8.95117C5.38666 8.64311 4.92044 8.21673 4.55469 7.69922L4.18359 7.17383L3.76562 7.66309C3.63164 7.82006 3.47111 7.9469 3.29395 8.03711L3.29199 8.03809L2.37207 8.51172H2.37109C1.97187 8.71816 1.54829 8.74853 1.21777 8.65625C0.888053 8.56416 0.686747 8.36684 0.620117 8.13281L0.619141 8.12988L0.533203 7.83398C0.454976 7.53756 0.584715 7.14438 0.974609 6.83008L1.50879 6.39941L0.93457 6.02344C0.640255 5.83044 0.502024 5.57912 0.501953 5.33398V5.03027C0.505997 4.89354 0.542223 4.76088 0.606445 4.64551C0.670593 4.53039 0.759897 4.43663 0.863281 4.37109L1.44727 4.00098L0.912109 3.5625C0.577499 3.28772 0.454259 2.9457 0.515625 2.67188V2.6709L0.584961 2.35645C0.63714 2.12824 0.817559 1.92506 1.12402 1.81055C1.43186 1.69559 1.83729 1.68655 2.23926 1.84473V1.8457L3.19434 2.22461L3.19824 2.22559C3.37976 2.29627 3.54914 2.40209 3.69727 2.53809L4.13184 2.9375L4.4541 2.44238C4.84885 1.83571 5.3772 1.34256 5.99121 1.00488C6.60505 0.667345 7.28698 0.494722 7.97656 0.5Z" fill="#76C7AD" stroke="white"/>
</svg>
