<svg width="32" height="32" viewBox="0 0 32 32" fill="none" xmlns="http://www.w3.org/2000/svg">
<g filter="url(#filter0_d_192_6855)">
<mask id="path-1-inside-1_192_6855" fill="white">
<path d="M23.7665 13.7783C24.5028 13.753 25.2263 13.976 25.8202 14.4121C26.4141 14.8484 26.8438 15.4722 27.0399 16.1826L27.9257 19.8447C28.368 21.7684 26.7831 23.5879 24.6464 23.5879H7.36023C5.20707 23.5879 3.61668 21.7684 4.08093 19.8447L4.97156 16.1826C5.16785 15.4713 5.59819 14.8465 6.19324 14.4102C6.78829 13.9738 7.51343 13.7517 8.25085 13.7783H23.7665ZM15.7216 0C18.8486 0 21.3837 2.53508 21.3837 5.66211C21.3836 8.78907 18.8485 11.3242 15.7216 11.3242C12.5947 11.3241 10.0595 8.789 10.0594 5.66211C10.0594 2.53516 12.5946 0.000126789 15.7216 0Z"/>
</mask>
<path d="M23.7665 13.7783C24.5028 13.753 25.2263 13.976 25.8202 14.4121C26.4141 14.8484 26.8438 15.4722 27.0399 16.1826L27.9257 19.8447C28.368 21.7684 26.7831 23.5879 24.6464 23.5879H7.36023C5.20707 23.5879 3.61668 21.7684 4.08093 19.8447L4.97156 16.1826C5.16785 15.4713 5.59819 14.8465 6.19324 14.4102C6.78829 13.9738 7.51343 13.7517 8.25085 13.7783H23.7665ZM15.7216 0C18.8486 0 21.3837 2.53508 21.3837 5.66211C21.3836 8.78907 18.8485 11.3242 15.7216 11.3242C12.5947 11.3241 10.0595 8.789 10.0594 5.66211C10.0594 2.53516 12.5946 0.000126789 15.7216 0Z" fill="url(#paint0_radial_192_6855)" shape-rendering="crispEdges"/>
<path d="M23.7665 13.7783V14.7783H23.7837L23.8009 14.7777L23.7665 13.7783ZM25.8202 14.4121L26.4122 13.6062L26.4121 13.6061L25.8202 14.4121ZM27.0399 16.1826L28.0119 15.9475L28.0081 15.932L28.0039 15.9165L27.0399 16.1826ZM27.9257 19.8447L28.9003 19.6206L28.8976 19.6096L27.9257 19.8447ZM4.08093 19.8447L3.10925 19.6084L3.10884 19.6101L4.08093 19.8447ZM4.97156 16.1826L4.00759 15.9166L4.00351 15.9314L3.99988 15.9463L4.97156 16.1826ZM6.19324 14.4102L5.60187 13.6038L5.60187 13.6038L6.19324 14.4102ZM8.25085 13.7783L8.21482 14.7777L8.23283 14.7783H8.25085V13.7783ZM15.7216 0V-1H15.7215L15.7216 0ZM21.3837 5.66211L22.3837 5.66213V5.66211H21.3837ZM15.7216 11.3242L15.7215 12.3242H15.7216V11.3242ZM10.0594 5.66211H9.05945V5.66213L10.0594 5.66211ZM23.7665 13.7783L23.8009 14.7777C24.313 14.7601 24.8158 14.9152 25.2283 15.2181L25.8202 14.4121L26.4121 13.6061C25.6368 13.0368 24.6926 12.7459 23.7321 12.7789L23.7665 13.7783ZM25.8202 14.4121L25.2282 15.218C25.6409 15.5212 25.9397 15.9549 26.076 16.4487L27.0399 16.1826L28.0039 15.9165C27.748 14.9896 27.1873 14.1755 26.4122 13.6062L25.8202 14.4121ZM27.0399 16.1826L26.0679 16.4177L26.9537 20.0798L27.9257 19.8447L28.8976 19.6096L28.0119 15.9475L27.0399 16.1826ZM27.9257 19.8447L26.9511 20.0689C27.2277 21.2716 26.2409 22.5879 24.6464 22.5879V23.5879V24.5879C27.3254 24.5879 29.5084 22.2651 28.9002 19.6206L27.9257 19.8447ZM24.6464 23.5879V22.5879H7.36023V23.5879V24.5879H24.6464V23.5879ZM7.36023 23.5879V22.5879C5.73979 22.5879 4.76639 21.267 5.05302 20.0793L4.08093 19.8447L3.10884 19.6101C2.46698 22.2697 4.67435 24.5879 7.36023 24.5879V23.5879ZM4.08093 19.8447L5.05261 20.081L5.94323 16.4189L4.97156 16.1826L3.99988 15.9463L3.10926 19.6084L4.08093 19.8447ZM4.97156 16.1826L5.93553 16.4486C6.07205 15.9539 6.37131 15.5196 6.78461 15.2166L6.19324 14.4102L5.60187 13.6038C4.82507 14.1734 4.26365 14.9887 4.00759 15.9166L4.97156 16.1826ZM6.19324 14.4102L6.7846 15.2166C7.19748 14.9138 7.7014 14.7592 8.21482 14.7777L8.25085 13.7783L8.28689 12.779C7.32546 12.7443 6.3791 13.0338 5.60187 13.6038L6.19324 14.4102ZM8.25085 13.7783V14.7783H23.7665V13.7783V12.7783H8.25085V13.7783ZM15.7216 0V1C18.2963 1 20.3837 3.08736 20.3837 5.66211H21.3837H22.3837C22.3837 1.98279 19.4009 -1 15.7216 -1V0ZM21.3837 5.66211L20.3837 5.66208C20.3836 8.23681 18.2962 10.3242 15.7216 10.3242V11.3242V12.3242C19.4008 12.3242 22.3836 9.34134 22.3837 5.66213L21.3837 5.66211ZM15.7216 11.3242L15.7216 10.3242C13.147 10.3241 11.0595 8.23669 11.0594 5.66208L10.0594 5.66211L9.05945 5.66213C9.05954 9.3413 12.0424 12.3241 15.7215 12.3242L15.7216 11.3242ZM10.0594 5.66211H11.0594C11.0594 3.08748 13.1469 1.0001 15.7216 1L15.7216 0L15.7215 -1C12.0424 -0.999851 9.05945 1.98283 9.05945 5.66211H10.0594Z" fill="white" mask="url(#path-1-inside-1_192_6855)"/>
</g>
<defs>
<filter id="filter0_d_192_6855" x="0" y="0" width="32.0001" height="31.5879" filterUnits="userSpaceOnUse" color-interpolation-filters="sRGB">
<feFlood flood-opacity="0" result="BackgroundImageFix"/>
<feColorMatrix in="SourceAlpha" type="matrix" values="0 0 0 0 0 0 0 0 0 0 0 0 0 0 0 0 0 0 127 0" result="hardAlpha"/>
<feOffset dy="4"/>
<feGaussianBlur stdDeviation="2"/>
<feComposite in2="hardAlpha" operator="out"/>
<feColorMatrix type="matrix" values="0 0 0 0 0 0 0 0 0 0 0 0 0 0 0 0 0 0 0.25 0"/>
<feBlend mode="normal" in2="BackgroundImageFix" result="effect1_dropShadow_192_6855"/>
<feBlend mode="normal" in="SourceGraphic" in2="effect1_dropShadow_192_6855" result="shape"/>
</filter>
<radialGradient id="paint0_radial_192_6855" cx="0" cy="0" r="1" gradientUnits="userSpaceOnUse" gradientTransform="translate(15.9999 11.7939) rotate(90) scale(11.7939 12.0001)">
<stop stop-color="white"/>
<stop offset="1" stop-color="white" stop-opacity="0.85"/>
</radialGradient>
</defs>
</svg>
