<svg width="10" height="10" viewBox="0 0 10 10" fill="none" xmlns="http://www.w3.org/2000/svg">
<path d="M9.49609 0.501953C9.4967 0.511802 9.50014 0.523321 9.5 0.537109C9.49887 0.64138 9.4678 0.808104 9.38184 1.04883L5.61035 9.19434L5.60156 9.21387L5.59375 9.2334C5.56315 9.31782 5.50604 9.38903 5.43262 9.43652C5.35932 9.48388 5.27333 9.50595 5.1875 9.49902C5.1016 9.49207 5.01943 9.45648 4.9541 9.39746C4.88881 9.33843 4.84406 9.25842 4.82715 9.16992V9.16895L4.79199 9.01465C4.59556 8.24175 4.04883 7.43937 3.41504 6.80273C2.7393 6.12398 1.87207 5.54092 1.04492 5.38672L0.828125 5.34375L0.824219 5.34277L0.761719 5.32617C0.701821 5.30413 0.647322 5.2667 0.603516 5.21777C0.545136 5.15242 0.508439 5.06864 0.500977 4.97949C0.493596 4.89034 0.515442 4.8013 0.5625 4.72656C0.609571 4.65182 0.679301 4.59552 0.759766 4.56543L0.78125 4.55762L0.801758 4.54785L8.95898 0.625C9.19511 0.535375 9.35976 0.503188 9.46289 0.5C9.47568 0.499607 9.48672 0.501617 9.49609 0.501953Z" fill="#659DF2" stroke="#F5F5F5"/>
</svg>
