<svg width="100" height="102" viewBox="0 0 100 102" fill="none" xmlns="http://www.w3.org/2000/svg">
<g filter="url(#filter0_d_6_16331)">
<path d="M75 87L43.7305 87C45.899 84.5544 47.19 81.4399 47.374 78.1533L47.376 78.126L47.374 78.0986C47.1983 74.7666 45.884 71.596 43.6504 69.1172C41.4968 66.7273 38.6139 65.1235 35.4561 64.5449C34.8777 61.3867 33.273 58.5035 30.8828 56.3496C28.404 54.116 25.2334 52.8017 21.9014 52.626L21.874 52.624L21.8467 52.626C18.5599 52.81 15.4457 54.1018 13 56.2705L13 25C13 21.8174 14.2642 18.7651 16.5147 16.5147C18.7651 14.2642 21.8174 13 25 13L75 13C78.1826 13 81.2349 14.2642 83.4854 16.5147C85.7358 18.7651 87 21.8174 87 25L87 75C87 78.1826 85.7358 81.2349 83.4854 83.4854C81.2349 85.7358 78.1826 87 75 87ZM37.5 55.4561C37.9769 55.456 38.4493 55.3616 38.8897 55.1787C39.275 55.0187 39.6294 54.7937 39.9375 54.5137L40.0664 54.3906L54.3916 40.0654C54.6354 39.821 54.9253 39.6274 55.2441 39.4951C55.563 39.3628 55.9048 39.294 56.25 39.294C56.5952 39.294 56.937 39.3628 57.2559 39.4951C57.5747 39.6274 57.8646 39.821 58.1084 40.0654L66.1836 48.1406C66.5202 48.4781 66.9201 48.746 67.3604 48.9287C67.8008 49.1115 68.2732 49.2061 68.75 49.2061C69.2268 49.2061 69.6992 49.1115 70.1397 48.9287C70.525 48.7688 70.8794 48.5436 71.1875 48.2637L71.3164 48.1406L77.5664 41.8906C78.2441 41.2113 78.6248 40.2906 78.625 39.3311L78.625 25C78.625 24.0386 78.2433 23.1164 77.5635 22.4365C76.8837 21.7567 75.9614 21.375 75 21.375L25 21.375C24.0386 21.375 23.1164 21.7567 22.4365 22.4365C21.7567 23.1163 21.375 24.0386 21.375 25L21.375 39.3311L21.3799 39.5107C21.4244 40.405 21.7983 41.2537 22.4336 41.8906L34.9336 54.3906C35.2702 54.7282 35.6701 54.9959 36.1104 55.1787C36.4957 55.3387 36.9054 55.4316 37.3213 55.4522L37.5 55.4561ZM68.75 75.5C70.5402 75.5 72.2576 74.7893 73.5234 73.5234C74.7893 72.2576 75.5 70.5402 75.5 68.75C75.5 66.9598 74.7893 65.2424 73.5234 63.9766C72.2576 62.7107 70.5402 62 68.75 62C66.9598 62 65.2424 62.7107 63.9766 63.9766C62.7107 65.2424 62 66.9598 62 68.75C62 70.5402 62.7107 72.2576 63.9766 73.5234C65.2424 74.7893 66.9598 75.5 68.75 75.5ZM21.875 93.25C20.7644 93.25 19.6994 92.8087 18.9141 92.0234C18.1288 91.2381 17.6875 90.1731 17.6875 89.0625L17.6875 82.3125L10.9375 82.3125C9.82691 82.3125 8.76187 81.8712 7.97656 81.0859C7.19126 80.3006 6.75 79.2356 6.75 78.125C6.75 77.0144 7.19126 75.9494 7.97656 75.1641C8.76187 74.3788 9.82691 73.9375 10.9375 73.9375L17.6875 73.9375L17.6875 67.1875C17.6875 66.0769 18.1288 65.0119 18.9141 64.2266C19.6994 63.4413 20.7644 63 21.875 63C22.9856 63 24.0506 63.4413 24.8359 64.2266C25.6212 65.0119 26.0625 66.0769 26.0625 67.1875L26.0625 73.9375L32.8125 73.9375C33.9231 73.9375 34.9881 74.3788 35.7734 75.1641C36.5587 75.9494 37 77.0144 37 78.125C37 79.2356 36.5587 80.3006 35.7734 81.0859C34.9881 81.8713 33.9231 82.3125 32.8125 82.3125L26.0625 82.3125L26.0625 89.0625C26.0625 90.1731 25.6212 91.2381 24.8359 92.0234C24.0506 92.8087 22.9856 93.25 21.875 93.25Z" fill="url(#paint0_radial_6_16331)" stroke="white"/>
</g>
<defs>
<filter id="filter0_d_6_16331" x="-4" y="8.74228e-06" width="108" height="108" filterUnits="userSpaceOnUse" color-interpolation-filters="sRGB">
<feFlood flood-opacity="0" result="BackgroundImageFix"/>
<feColorMatrix in="SourceAlpha" type="matrix" values="0 0 0 0 0 0 0 0 0 0 0 0 0 0 0 0 0 0 127 0" result="hardAlpha"/>
<feOffset dy="4"/>
<feGaussianBlur stdDeviation="2"/>
<feComposite in2="hardAlpha" operator="out"/>
<feColorMatrix type="matrix" values="0 0 0 0 0 0 0 0 0 0 0 0 0 0 0 0 0 0 0.25 0"/>
<feBlend mode="normal" in2="BackgroundImageFix" result="effect1_dropShadow_6_16331"/>
<feBlend mode="normal" in="SourceGraphic" in2="effect1_dropShadow_6_16331" result="shape"/>
</filter>
<radialGradient id="paint0_radial_6_16331" cx="0" cy="0" r="1" gradientUnits="userSpaceOnUse" gradientTransform="translate(46.875 53.125) rotate(90) scale(40.625)">
<stop stop-color="white"/>
<stop offset="1" stop-color="white" stop-opacity="0.8"/>
</radialGradient>
</defs>
</svg>
