<svg width="16" height="22" viewBox="0 0 16 22" fill="none" xmlns="http://www.w3.org/2000/svg">
<path d="M15.9999 6.63451C16.0066 7.38848 15.7748 8.1252 15.3379 8.73889C14.901 9.35258 14.2814 9.81169 13.5681 10.0503L4.76816 13.0835C4.54505 13.1621 4.31418 13.2164 4.07946 13.2455V19.9521C4.07946 20.4948 3.86466 21.0153 3.48221 21.3993C3.09977 21.7832 2.58091 21.9993 2.0397 22C1.49871 21.9986 0.980318 21.7823 0.598025 21.3985C0.215732 21.0147 0.000698957 20.4945 0 19.9521V9.83245C0 9.77667 0 9.72352 0 9.66774V3.60128C0 3.54816 0 3.49235 0 3.43923C0.00793704 3.26067 0.0300822 3.08304 0.0662244 2.90801C0.166435 2.4025 0.373411 1.92434 0.673174 1.50566C0.972937 1.08697 1.35853 0.737447 1.80416 0.480573C2.24979 0.223698 2.74508 0.0654658 3.25677 0.0164061C3.76845 -0.0326536 4.28471 0.0286175 4.77081 0.196159L13.5707 3.22939C14.2818 3.46786 14.8996 3.92555 15.3359 4.53707C15.7721 5.14859 16.0045 5.88267 15.9999 6.63451Z" fill="#659DF2"/>
</svg>
