<svg width="29" height="35" viewBox="0 0 29 35" fill="none" xmlns="http://www.w3.org/2000/svg">
<g filter="url(#filter0_d_192_6847)">
<mask id="path-1-inside-1_192_6847" fill="white">
<path d="M14.3799 0C17.1696 0.000250184 19.5124 2.56063 20.4043 6.2334C21.2356 6.29489 22.0256 6.63561 22.6416 7.20508C23.3245 7.8365 23.7445 8.70268 23.8174 9.62988L24.7822 22.2305C24.7822 22.8567 24.6586 23.4771 24.4189 24.0557C24.1793 24.6342 23.8285 25.1607 23.3857 25.6035C22.9429 26.0463 22.4164 26.397 21.8379 26.6367C21.2593 26.8764 20.6389 26.9999 20.0127 27H8.76953C7.50491 26.9999 6.29184 26.4976 5.39746 25.6035C4.503 24.7091 4.00004 23.4954 4 22.2305L4.96484 9.62988C5.03778 8.70259 5.4586 7.83651 6.1416 7.20508C6.75153 6.64149 7.5314 6.30161 8.35352 6.23535C9.24505 2.56125 11.5894 5.86362e-05 14.3799 0ZM14.1895 12.8203C13.6825 12.8203 13.1802 12.923 12.7119 13.123C12.2437 13.3231 11.8181 13.6168 11.46 13.9863C11.2889 14.1607 11.1316 14.3489 10.9893 14.5488C10.8345 14.405 10.6528 14.2944 10.4561 14.2236L9.68359 13.918C8.8588 13.5976 7.95338 13.928 7.79785 14.6123L7.74121 14.8594C7.70751 15.0703 7.7347 15.2868 7.81836 15.4824C7.90201 15.678 8.0391 15.8442 8.21289 15.9609C8.07299 16.051 7.95721 16.1759 7.875 16.3232C7.79288 16.4705 7.74634 16.636 7.74121 16.8057V17.0625C7.74806 17.244 7.80113 17.4211 7.89453 17.5752C7.98793 17.7292 8.11911 17.8554 8.27441 17.9414C8.08696 18.0707 7.9415 18.2551 7.85742 18.4707C7.77339 18.6862 7.75427 18.9227 7.80273 19.1494L7.87402 19.3975C8.07211 20.0913 9.04739 20.3587 9.87207 19.9463L10.6211 19.5674C10.8123 19.4689 10.9845 19.3352 11.1299 19.1738C11.4613 19.63 11.8847 20.0078 12.3701 20.2812C12.8555 20.5547 13.3925 20.7174 13.9443 20.7588C14.496 20.8001 15.0498 20.7195 15.5684 20.5215C16.0871 20.3234 16.559 20.0132 16.9512 19.6113C17.0974 19.4598 17.2328 19.2975 17.3564 19.126C17.5054 19.3134 17.6922 19.4656 17.9033 19.5723L18.6523 19.9502C19.477 20.3724 20.4523 20.0962 20.6504 19.4023L20.7217 19.1543C20.7701 18.9275 20.751 18.6911 20.667 18.4756C20.5829 18.26 20.4375 18.0755 20.25 17.9463C20.4059 17.8605 20.5376 17.7341 20.6318 17.5801C20.726 17.4261 20.7793 17.2492 20.7871 17.0674V16.8105C20.7732 16.6298 20.7134 16.4558 20.6133 16.3066C20.5131 16.1576 20.376 16.0382 20.2168 15.9609C20.3915 15.8451 20.5295 15.6792 20.6133 15.4834C20.6971 15.2875 20.7234 15.0704 20.6885 14.8594L20.6318 14.6123C20.481 13.9184 19.5765 13.5979 18.7471 13.918L17.9688 14.2236C17.7509 14.3019 17.5532 14.43 17.3896 14.5977C17.2533 14.3778 17.0949 14.173 16.918 13.9863C16.5599 13.6168 16.1343 13.3231 15.666 13.123C15.1979 12.9232 14.6962 12.8204 14.1895 12.8203ZM14.3799 3.40723C13.4638 3.4073 12.4797 4.50225 11.8965 6.22363H16.8613C16.2779 4.51285 15.2948 3.43001 14.3799 3.42969V3.40723Z"/>
</mask>
<path d="M14.3799 0C17.1696 0.000250184 19.5124 2.56063 20.4043 6.2334C21.2356 6.29489 22.0256 6.63561 22.6416 7.20508C23.3245 7.8365 23.7445 8.70268 23.8174 9.62988L24.7822 22.2305C24.7822 22.8567 24.6586 23.4771 24.4189 24.0557C24.1793 24.6342 23.8285 25.1607 23.3857 25.6035C22.9429 26.0463 22.4164 26.397 21.8379 26.6367C21.2593 26.8764 20.6389 26.9999 20.0127 27H8.76953C7.50491 26.9999 6.29184 26.4976 5.39746 25.6035C4.503 24.7091 4.00004 23.4954 4 22.2305L4.96484 9.62988C5.03778 8.70259 5.4586 7.83651 6.1416 7.20508C6.75153 6.64149 7.5314 6.30161 8.35352 6.23535C9.24505 2.56125 11.5894 5.86362e-05 14.3799 0ZM14.1895 12.8203C13.6825 12.8203 13.1802 12.923 12.7119 13.123C12.2437 13.3231 11.8181 13.6168 11.46 13.9863C11.2889 14.1607 11.1316 14.3489 10.9893 14.5488C10.8345 14.405 10.6528 14.2944 10.4561 14.2236L9.68359 13.918C8.8588 13.5976 7.95338 13.928 7.79785 14.6123L7.74121 14.8594C7.70751 15.0703 7.7347 15.2868 7.81836 15.4824C7.90201 15.678 8.0391 15.8442 8.21289 15.9609C8.07299 16.051 7.95721 16.1759 7.875 16.3232C7.79288 16.4705 7.74634 16.636 7.74121 16.8057V17.0625C7.74806 17.244 7.80113 17.4211 7.89453 17.5752C7.98793 17.7292 8.11911 17.8554 8.27441 17.9414C8.08696 18.0707 7.9415 18.2551 7.85742 18.4707C7.77339 18.6862 7.75427 18.9227 7.80273 19.1494L7.87402 19.3975C8.07211 20.0913 9.04739 20.3587 9.87207 19.9463L10.6211 19.5674C10.8123 19.4689 10.9845 19.3352 11.1299 19.1738C11.4613 19.63 11.8847 20.0078 12.3701 20.2812C12.8555 20.5547 13.3925 20.7174 13.9443 20.7588C14.496 20.8001 15.0498 20.7195 15.5684 20.5215C16.0871 20.3234 16.559 20.0132 16.9512 19.6113C17.0974 19.4598 17.2328 19.2975 17.3564 19.126C17.5054 19.3134 17.6922 19.4656 17.9033 19.5723L18.6523 19.9502C19.477 20.3724 20.4523 20.0962 20.6504 19.4023L20.7217 19.1543C20.7701 18.9275 20.751 18.6911 20.667 18.4756C20.5829 18.26 20.4375 18.0755 20.25 17.9463C20.4059 17.8605 20.5376 17.7341 20.6318 17.5801C20.726 17.4261 20.7793 17.2492 20.7871 17.0674V16.8105C20.7732 16.6298 20.7134 16.4558 20.6133 16.3066C20.5131 16.1576 20.376 16.0382 20.2168 15.9609C20.3915 15.8451 20.5295 15.6792 20.6133 15.4834C20.6971 15.2875 20.7234 15.0704 20.6885 14.8594L20.6318 14.6123C20.481 13.9184 19.5765 13.5979 18.7471 13.918L17.9688 14.2236C17.7509 14.3019 17.5532 14.43 17.3896 14.5977C17.2533 14.3778 17.0949 14.173 16.918 13.9863C16.5599 13.6168 16.1343 13.3231 15.666 13.123C15.1979 12.9232 14.6962 12.8204 14.1895 12.8203ZM14.3799 3.40723C13.4638 3.4073 12.4797 4.50225 11.8965 6.22363H16.8613C16.2779 4.51285 15.2948 3.43001 14.3799 3.42969V3.40723Z" fill="url(#paint0_radial_192_6847)" shape-rendering="crispEdges"/>
<path d="M14.3799 0L14.38 -1H14.3799L14.3799 0ZM20.4043 6.2334L19.4325 6.46938L19.6044 7.17696L20.3305 7.23067L20.4043 6.2334ZM22.6416 7.20508L23.3205 6.47085L23.3204 6.47077L22.6416 7.20508ZM23.8174 9.62988L24.8145 9.55353L24.8143 9.55147L23.8174 9.62988ZM24.7822 22.2305L25.7822 22.2305L25.7822 22.1923L25.7793 22.1541L24.7822 22.2305ZM24.4189 24.0557L25.3428 24.4384L25.3428 24.4383L24.4189 24.0557ZM23.3857 25.6035L24.0928 26.3106L24.0929 26.3106L23.3857 25.6035ZM21.8379 26.6367L22.2206 27.5606L22.2206 27.5606L21.8379 26.6367ZM20.0127 27V28H20.0128L20.0127 27ZM8.76953 27L8.76948 28H8.76953V27ZM5.39746 25.6035L4.69035 26.3106L4.69049 26.3108L5.39746 25.6035ZM4 22.2305L3.00292 22.1541L3 22.1923L3 22.2305L4 22.2305ZM4.96484 9.62988L3.96792 9.55147L3.96776 9.55353L4.96484 9.62988ZM6.1416 7.20508L5.46294 6.47062L5.46276 6.47079L6.1416 7.20508ZM8.35352 6.23535L8.43386 7.23212L9.15477 7.17401L9.32531 6.47116L8.35352 6.23535ZM14.1895 12.8203L14.1895 11.8203H14.1895V12.8203ZM12.7119 13.123L12.3191 12.2034L12.3191 12.2034L12.7119 13.123ZM11.46 13.9863L12.1738 14.6866L12.1781 14.6823L11.46 13.9863ZM10.9893 14.5488L10.3084 15.2812L11.1432 16.0573L11.804 15.1286L10.9893 14.5488ZM10.4561 14.2236L10.0881 15.1535L10.1028 15.1593L10.1176 15.1646L10.4561 14.2236ZM9.68359 13.918L10.0515 12.9881L10.0456 12.9858L9.68359 13.918ZM7.79785 14.6123L8.77257 14.8358L8.77298 14.8339L7.79785 14.6123ZM7.74121 14.8594L6.7665 14.6359L6.75902 14.6685L6.75374 14.7016L7.74121 14.8594ZM7.81836 15.4824L6.89893 15.8757L6.89896 15.8757L7.81836 15.4824ZM8.21289 15.9609L8.75412 16.8018L10.0328 15.9788L8.77052 15.1308L8.21289 15.9609ZM7.875 16.3232L7.00179 15.8359L7.00168 15.8361L7.875 16.3232ZM7.74121 16.8057L6.74167 16.7754L6.74121 16.7905V16.8057H7.74121ZM7.74121 17.0625H6.74121V17.0814L6.74192 17.1002L7.74121 17.0625ZM7.89453 17.5752L7.03941 18.0936L7.03948 18.0937L7.89453 17.5752ZM8.27441 17.9414L8.84207 18.7647L10.1707 17.8485L8.7589 17.0666L8.27441 17.9414ZM7.85742 18.4707L6.92578 18.1073L6.92577 18.1074L7.85742 18.4707ZM7.80273 19.1494L6.82482 19.3584L6.83206 19.3923L6.84164 19.4256L7.80273 19.1494ZM7.87402 19.3975L8.8356 19.1229L8.83512 19.1212L7.87402 19.3975ZM9.87207 19.9463L10.3194 20.8407L10.3235 20.8386L9.87207 19.9463ZM10.6211 19.5674L11.0725 20.4597L11.0791 20.4563L10.6211 19.5674ZM11.1299 19.1738L11.9389 18.586L11.2132 17.5872L10.3869 18.5046L11.1299 19.1738ZM12.3701 20.2812L11.8793 21.1525L11.8793 21.1525L12.3701 20.2812ZM13.9443 20.7588L13.8695 21.756L13.8696 21.756L13.9443 20.7588ZM15.5684 20.5215L15.925 21.4557L15.9251 21.4557L15.5684 20.5215ZM16.9512 19.6113L17.6669 20.3098L17.6708 20.3057L16.9512 19.6113ZM17.3564 19.126L18.1392 18.5036L17.3172 17.4699L16.5452 18.5413L17.3564 19.126ZM17.9033 19.5723L17.4523 20.4648L17.4529 20.4651L17.9033 19.5723ZM18.6523 19.9502L19.108 19.06L19.1028 19.0574L18.6523 19.9502ZM20.6504 19.4023L19.6893 19.1261L19.6888 19.1278L20.6504 19.4023ZM20.7217 19.1543L21.6828 19.4305L21.6923 19.3972L21.6996 19.3633L20.7217 19.1543ZM20.667 18.4756L21.5986 18.1122L21.5986 18.1122L20.667 18.4756ZM20.25 17.9463L19.7679 17.0701L18.3495 17.8506L19.6823 18.7696L20.25 17.9463ZM20.6318 17.5801L21.4849 18.1019L21.485 18.1017L20.6318 17.5801ZM20.7871 17.0674L21.7862 17.1101L21.7871 17.0888V17.0674H20.7871ZM20.7871 16.8105H21.7871V16.772L21.7841 16.7336L20.7871 16.8105ZM20.6133 16.3066L21.4435 15.7492L21.4434 15.749L20.6133 16.3066ZM20.2168 15.9609L19.6642 15.1275L18.2035 16.0959L19.7804 16.8607L20.2168 15.9609ZM20.6133 15.4834L21.5326 15.8769L21.5327 15.8767L20.6133 15.4834ZM20.6885 14.8594L21.675 14.696L21.67 14.6658L21.6632 14.6359L20.6885 14.8594ZM20.6318 14.6123L19.6546 14.8247L19.6571 14.8358L20.6318 14.6123ZM18.7471 13.918L18.387 12.985L18.3815 12.9872L18.7471 13.918ZM17.9688 14.2236L18.3069 15.1647L18.3207 15.1598L18.3343 15.1544L17.9688 14.2236ZM17.3896 14.5977L16.5398 15.1247L17.2132 16.2105L18.1054 15.296L17.3896 14.5977ZM16.918 13.9863L17.6438 13.2983L17.6361 13.2904L16.918 13.9863ZM15.666 13.123L16.0588 12.2034L16.0587 12.2034L15.666 13.123ZM14.3799 3.40723H15.3799V2.40714L14.3798 2.40723L14.3799 3.40723ZM11.8965 6.22363L10.9494 5.90275L10.5019 7.22363H11.8965V6.22363ZM16.8613 6.22363V7.22363H18.2589L17.8078 5.90087L16.8613 6.22363ZM14.3799 3.42969H13.3799V4.42934L14.3795 4.42969L14.3799 3.42969ZM14.3799 0L14.3798 1C16.4872 1.00019 18.5868 2.98688 19.4325 6.46938L20.4043 6.2334L21.3761 5.99742C20.438 2.13439 17.852 -0.999689 14.38 -1L14.3799 0ZM20.4043 6.2334L20.3305 7.23067C20.9375 7.27557 21.5138 7.52437 21.9628 7.93939L22.6416 7.20508L23.3204 6.47077C22.5373 5.74684 21.5337 5.3142 20.4781 5.23612L20.4043 6.2334ZM22.6416 7.20508L21.9627 7.93931C22.4608 8.39989 22.7673 9.03189 22.8205 9.70829L23.8174 9.62988L24.8143 9.55147C24.7217 8.37348 24.1881 7.27311 23.3205 6.47085L22.6416 7.20508ZM23.8174 9.62988L22.8203 9.70623L23.7851 22.3068L24.7822 22.2305L25.7793 22.1541L24.8145 9.55353L23.8174 9.62988ZM24.7822 22.2305L23.7822 22.2304C23.7822 22.7252 23.6845 23.2155 23.4951 23.673L24.4189 24.0557L25.3428 24.4383C25.6326 23.7386 25.7822 22.9883 25.7822 22.2305L24.7822 22.2305ZM24.4189 24.0557L23.4951 23.6729C23.3053 24.131 23.0278 24.5472 22.6786 24.8965L23.3857 25.6035L24.0929 26.3106C24.6291 25.7743 25.0533 25.1373 25.3428 24.4384L24.4189 24.0557ZM23.3857 25.6035L22.6787 24.8964C22.3294 25.2456 21.9133 25.5231 21.4551 25.7129L21.8379 26.6367L22.2206 27.5606C22.9195 27.271 23.5565 26.8469 24.0928 26.3106L23.3857 25.6035ZM21.8379 26.6367L21.4552 25.7128C20.9978 25.9023 20.5074 26 20.0126 26L20.0127 27L20.0128 28C20.7705 27.9999 21.5209 27.8504 22.2206 27.5606L21.8379 26.6367ZM20.0127 27V26H8.76953V27V28H20.0127V27ZM8.76953 27L8.76958 26C7.7701 25.9999 6.8113 25.6029 6.10443 24.8963L5.39746 25.6035L4.69049 26.3108C5.77238 27.3922 7.23972 27.9999 8.76948 28L8.76953 27ZM5.39746 25.6035L6.10457 24.8964C5.39754 24.1894 5.00003 23.2301 5 22.2304L4 22.2305L3 22.2305C3.00005 23.7608 3.60845 25.2287 4.69035 26.3106L5.39746 25.6035ZM4 22.2305L4.99708 22.3068L5.96193 9.70623L4.96484 9.62988L3.96776 9.55353L3.00292 22.1541L4 22.2305ZM4.96484 9.62988L5.96176 9.7083C6.01493 9.03242 6.3218 8.40036 6.82044 7.93936L6.1416 7.20508L5.46276 6.47079C4.5954 7.27267 4.06064 8.37276 3.96792 9.55147L4.96484 9.62988ZM6.1416 7.20508L6.82026 7.93953C7.26515 7.52845 7.83411 7.28046 8.43386 7.23212L8.35352 6.23535L8.27318 5.23858C7.22869 5.32277 6.23792 5.75453 5.46294 6.47062L6.1416 7.20508ZM8.35352 6.23535L9.32531 6.47116C10.1706 2.98761 12.2717 1.00004 14.3799 1L14.3799 0L14.3799 -1C10.9071 -0.999927 8.31948 2.13489 7.38172 5.99954L8.35352 6.23535ZM14.1895 12.8203V11.8203C13.5473 11.8203 12.9113 11.9505 12.3191 12.2034L12.7119 13.123L13.1047 14.0427C13.449 13.8956 13.8177 13.8203 14.1895 13.8203V12.8203ZM12.7119 13.123L12.3191 12.2034C11.7269 12.4564 11.1911 12.8268 10.7419 13.2904L11.46 13.9863L12.1781 14.6823C12.445 14.4068 12.7604 14.1897 13.1047 14.0427L12.7119 13.123ZM11.46 13.9863L10.7461 13.286C10.5378 13.4983 10.3469 13.7268 10.1745 13.969L10.9893 14.5488L11.804 15.1286C11.9162 14.9709 12.0399 14.8232 12.1738 14.6866L11.46 13.9863ZM10.9893 14.5488L11.6701 13.8164C11.4168 13.5809 11.1187 13.3993 10.7945 13.2826L10.4561 14.2236L10.1176 15.1646C10.1869 15.1896 10.2522 15.229 10.3084 15.2812L10.9893 14.5488ZM10.4561 14.2236L10.824 13.2938L10.0515 12.9881L9.68359 13.918L9.31565 14.8478L10.0881 15.1535L10.4561 14.2236ZM9.68359 13.918L10.0456 12.9858C9.41617 12.7413 8.73225 12.7341 8.14513 12.9497C7.55825 13.1651 6.99272 13.6427 6.82272 14.3907L7.79785 14.6123L8.77298 14.8339C8.75852 14.8976 8.72347 14.8679 8.83437 14.8271C8.94504 14.7865 9.12623 14.7743 9.32157 14.8501L9.68359 13.918ZM7.79785 14.6123L6.82314 14.3889L6.7665 14.6359L7.74121 14.8594L8.71593 15.0828L8.77257 14.8358L7.79785 14.6123ZM7.74121 14.8594L6.75374 14.7016C6.69009 15.1 6.74145 15.5075 6.89893 15.8757L7.81836 15.4824L8.73779 15.0892C8.72795 15.0662 8.72494 15.0406 8.72869 15.0172L7.74121 14.8594ZM7.81836 15.4824L6.89896 15.8757C7.05731 16.2459 7.3187 16.5649 7.65526 16.791L8.21289 15.9609L8.77052 15.1308C8.7595 15.1234 8.74672 15.11 8.73776 15.0891L7.81836 15.4824ZM8.21289 15.9609L7.67166 15.1201C7.3889 15.3021 7.1611 15.5505 7.00179 15.8359L7.875 16.3232L8.74821 16.8106C8.75331 16.8014 8.75709 16.7999 8.75412 16.8018L8.21289 15.9609ZM7.875 16.3232L7.00168 15.8361C6.84276 16.121 6.75173 16.4429 6.74167 16.7754L7.74121 16.8057L8.74075 16.8359C8.74096 16.829 8.743 16.8199 8.74832 16.8104L7.875 16.3232ZM7.74121 16.8057H6.74121V17.0625H7.74121H8.74121V16.8057H7.74121ZM7.74121 17.0625L6.74192 17.1002C6.75515 17.4507 6.85739 17.7934 7.03941 18.0936L7.89453 17.5752L8.74965 17.0568C8.74486 17.0489 8.74097 17.0373 8.7405 17.0248L7.74121 17.0625ZM7.89453 17.5752L7.03948 18.0937C7.22247 18.3955 7.48087 18.645 7.78993 18.8162L8.27441 17.9414L8.7589 17.0666C8.75736 17.0658 8.75339 17.0629 8.74958 17.0567L7.89453 17.5752ZM8.27441 17.9414L7.70676 17.1181C7.35229 17.3626 7.08141 17.7083 6.92578 18.1073L7.85742 18.4707L8.78906 18.8341C8.8016 18.802 8.82163 18.7788 8.84207 18.7647L8.27441 17.9414ZM7.85742 18.4707L6.92577 18.1074C6.7706 18.5052 6.73555 18.9407 6.82482 19.3584L7.80273 19.1494L8.78065 18.9404C8.773 18.9046 8.77618 18.8671 8.78908 18.834L7.85742 18.4707ZM7.80273 19.1494L6.84164 19.4256L6.91293 19.6737L7.87402 19.3975L8.83512 19.1212L8.76383 18.8732L7.80273 19.1494ZM7.87402 19.3975L6.91244 19.672C7.13089 20.4371 7.75667 20.8818 8.37335 21.051C8.99191 21.2209 9.69497 21.1529 10.3194 20.8407L9.87207 19.9463L9.42479 19.0519C9.22449 19.1521 9.02757 19.1566 8.9028 19.1224C8.77614 19.0876 8.81524 19.0516 8.8356 19.1229L7.87402 19.3975ZM9.87207 19.9463L10.3235 20.8386L11.0725 20.4597L10.6211 19.5674L10.1697 18.6751L9.42067 19.054L9.87207 19.9463ZM10.6211 19.5674L11.0791 20.4563C11.3803 20.3011 11.6485 20.0922 11.8729 19.8431L11.1299 19.1738L10.3869 18.5046C10.3205 18.5782 10.2442 18.6366 10.163 18.6785L10.6211 19.5674ZM11.1299 19.1738L10.3209 19.7616C10.736 20.3329 11.2675 20.8078 11.8793 21.1525L12.3701 20.2812L12.861 19.41C12.502 19.2078 12.1867 18.9271 11.9389 18.586L11.1299 19.1738ZM12.3701 20.2812L11.8793 21.1525C12.4919 21.4976 13.1708 21.7036 13.8695 21.756L13.9443 20.7588L14.0192 19.7616C13.6142 19.7312 13.2191 19.6118 12.8609 19.41L12.3701 20.2812ZM13.9443 20.7588L13.8696 21.756C14.568 21.8083 15.269 21.7062 15.925 21.4557L15.5684 20.5215L15.2117 19.5873C14.8305 19.7328 14.424 19.7919 14.0191 19.7616L13.9443 20.7588ZM15.5684 20.5215L15.9251 21.4557C16.5801 21.2056 17.1743 20.8145 17.6669 20.3098L16.9512 19.6113L16.2355 18.9129C15.9437 19.2119 15.5941 19.4412 15.2116 19.5873L15.5684 20.5215ZM16.9512 19.6113L17.6708 20.3057C17.8504 20.1195 18.0165 19.9205 18.1677 19.7106L17.3564 19.126L16.5452 18.5413C16.4492 18.6745 16.3443 18.8001 16.2315 18.917L16.9512 19.6113ZM17.3564 19.126L16.5737 19.7484C16.8118 20.0477 17.1114 20.2925 17.4523 20.4648L17.9033 19.5723L18.3543 18.6797C18.273 18.6387 18.1991 18.579 18.1392 18.5036L17.3564 19.126ZM17.9033 19.5723L17.4529 20.4651L18.2019 20.843L18.6523 19.9502L19.1028 19.0574L18.3538 18.6795L17.9033 19.5723ZM18.6523 19.9502L18.1967 20.8403C18.8248 21.1619 19.5323 21.2306 20.1534 21.0585C20.7718 20.8871 21.3944 20.439 21.612 19.6769L20.6504 19.4023L19.6888 19.1278C19.7083 19.0596 19.7442 19.0965 19.6193 19.1311C19.4971 19.165 19.3046 19.1607 19.108 19.0601L18.6523 19.9502ZM20.6504 19.4023L21.6115 19.6786L21.6828 19.4305L20.7217 19.1543L19.7606 18.8781L19.6893 19.1261L20.6504 19.4023ZM20.7217 19.1543L21.6996 19.3633C21.7889 18.9456 21.7538 18.5101 21.5986 18.1122L20.667 18.4756L19.7353 18.8389C19.7482 18.872 19.7514 18.9095 19.7438 18.9453L20.7217 19.1543ZM20.667 18.4756L21.5986 18.1122C21.443 17.7132 21.1721 17.3674 20.8177 17.123L20.25 17.9463L19.6823 18.7696C19.7028 18.7837 19.7228 18.8068 19.7353 18.8389L20.667 18.4756ZM20.25 17.9463L20.7321 18.8224C21.043 18.6514 21.3015 18.4017 21.4849 18.1019L20.6318 17.5801L19.7788 17.0583C19.7737 17.0665 19.7689 17.0696 19.7679 17.0701L20.25 17.9463ZM20.6318 17.5801L21.485 18.1017C21.669 17.8007 21.7713 17.4586 21.7862 17.1101L20.7871 17.0674L19.788 17.0246C19.7874 17.0398 19.7829 17.0515 19.7787 17.0585L20.6318 17.5801ZM20.7871 17.0674H21.7871V16.8105H20.7871H19.7871V17.0674H20.7871ZM20.7871 16.8105L21.7841 16.7336C21.7572 16.3843 21.6416 16.0442 21.4435 15.7492L20.6133 16.3066L19.7831 16.8641C19.7853 16.8674 19.7891 16.8753 19.7901 16.8875L20.7871 16.8105ZM20.6133 16.3066L21.4434 15.749C21.2457 15.4548 20.9735 15.2165 20.6532 15.0612L20.2168 15.9609L19.7804 16.8607C19.7786 16.8598 19.7806 16.8603 19.7832 16.8643L20.6133 16.3066ZM20.2168 15.9609L20.7694 16.7944C21.1087 16.5695 21.373 16.2497 21.5326 15.8769L20.6133 15.4834L19.694 15.0899C19.6859 15.1087 19.6743 15.1208 19.6642 15.1275L20.2168 15.9609ZM20.6133 15.4834L21.5327 15.8767C21.6915 15.5055 21.7411 15.0952 21.675 14.696L20.6885 14.8594L19.7019 15.0227C19.7057 15.0455 19.7027 15.0695 19.6939 15.0901L20.6133 15.4834ZM20.6885 14.8594L21.6632 14.6359L21.6066 14.3889L20.6318 14.6123L19.6571 14.8358L19.7138 15.0828L20.6885 14.8594ZM20.6318 14.6123L21.609 14.4C21.4446 13.6434 20.8787 13.1608 20.2858 12.9451C19.6961 12.7306 19.013 12.7434 18.387 12.985L18.7471 13.918L19.1071 14.8509C19.3106 14.7724 19.4944 14.7854 19.602 14.8246C19.7065 14.8626 19.6682 14.8872 19.6546 14.8247L20.6318 14.6123ZM18.7471 13.918L18.3815 12.9872L17.6032 13.2928L17.9688 14.2236L18.3343 15.1544L19.1126 14.8488L18.7471 13.918ZM17.9688 14.2236L17.6306 13.2825C17.2669 13.4132 16.9409 13.6257 16.6739 13.8993L17.3896 14.5977L18.1054 15.296C18.1655 15.2344 18.2349 15.1906 18.3069 15.1647L17.9688 14.2236ZM17.3896 14.5977L18.2395 14.0706C18.067 13.7924 17.8669 13.5338 17.6437 13.2984L16.918 13.9863L16.1922 14.6743C16.3229 14.8122 16.4397 14.9632 16.5398 15.1247L17.3896 14.5977ZM16.918 13.9863L17.6361 13.2904C17.1868 12.8268 16.6511 12.4564 16.0588 12.2034L15.666 13.123L15.2732 14.0427C15.6175 14.1897 15.9329 14.4068 16.1999 14.6823L16.918 13.9863ZM15.666 13.123L16.0587 12.2034C15.467 11.9507 14.8317 11.8204 14.1895 11.8203L14.1895 12.8203L14.1894 13.8203C14.5607 13.8203 14.9289 13.8956 15.2733 14.0427L15.666 13.123ZM14.3799 3.40723L14.3798 2.40723C13.5176 2.4073 12.7925 2.91155 12.265 3.50657C11.7217 4.11948 11.272 4.95057 10.9494 5.90275L11.8965 6.22363L12.8436 6.54451C13.1042 5.77532 13.4381 5.19823 13.7616 4.83331C14.101 4.45049 14.326 4.40723 14.38 4.40723L14.3799 3.40723ZM11.8965 6.22363V7.22363H16.8613V6.22363V5.22363H11.8965V6.22363ZM16.8613 6.22363L17.8078 5.90087C17.4847 4.95333 17.0345 4.12751 16.4906 3.51888C15.9618 2.92722 15.238 2.42999 14.3802 2.42969L14.3799 3.42969L14.3795 4.42969C14.4367 4.42971 14.6619 4.47406 14.9993 4.8516C15.3215 5.21217 15.6546 5.78316 15.9148 6.54639L16.8613 6.22363ZM14.3799 3.42969H15.3799V3.40723H14.3799H13.3799V3.42969H14.3799Z" fill="white" mask="url(#path-1-inside-1_192_6847)"/>
</g>
<defs>
<filter id="filter0_d_192_6847" x="0" y="0" width="28.7822" height="35" filterUnits="userSpaceOnUse" color-interpolation-filters="sRGB">
<feFlood flood-opacity="0" result="BackgroundImageFix"/>
<feColorMatrix in="SourceAlpha" type="matrix" values="0 0 0 0 0 0 0 0 0 0 0 0 0 0 0 0 0 0 127 0" result="hardAlpha"/>
<feOffset dy="4"/>
<feGaussianBlur stdDeviation="2"/>
<feComposite in2="hardAlpha" operator="out"/>
<feColorMatrix type="matrix" values="0 0 0 0 0 0 0 0 0 0 0 0 0 0 0 0 0 0 0.25 0"/>
<feBlend mode="normal" in2="BackgroundImageFix" result="effect1_dropShadow_192_6847"/>
<feBlend mode="normal" in="SourceGraphic" in2="effect1_dropShadow_192_6847" result="shape"/>
</filter>
<radialGradient id="paint0_radial_192_6847" cx="0" cy="0" r="1" gradientUnits="userSpaceOnUse" gradientTransform="translate(14.3911 13.5) rotate(90) scale(13.5 10.3911)">
<stop stop-color="white"/>
<stop offset="1" stop-color="white" stop-opacity="0.85"/>
</radialGradient>
</defs>
</svg>
