<svg width="73" height="73" viewBox="0 0 73 73" fill="none" xmlns="http://www.w3.org/2000/svg">
<path d="M52.7864 0.171623C55.4537 -0.542922 58.1954 1.03991 58.9101 3.70716L72.0609 52.7864C72.7753 55.4535 71.1924 58.1953 68.5253 58.9101L45.3337 65.1243C45.3129 64.7001 45.3136 64.2765 45.3518 63.8638C46.2234 60.7252 55.6314 57.3624 54.3985 52.7601C54.2364 52.1408 54.0106 51.5395 53.7262 50.9678C52.4108 48.3151 50.1593 47.4609 48.5185 47.1757C48.3632 47.1486 48.2141 47.1262 48.0722 47.1103C47.5935 47.0527 47.1913 47.0335 46.9115 47.023C46.6908 47.0195 46.4717 47.05 46.2611 47.1123C44.7867 47.5074 42.564 49.1026 40.4413 49.6918C38.3084 50.2429 35.5859 49.9727 34.1115 50.3678C33.8982 50.4201 33.6934 50.5032 33.5036 50.6156C33.2472 50.7772 32.8686 51.0161 32.4463 51.3447L32.3407 51.4297C31.0369 52.4741 29.3854 54.3564 29.5559 57.4311C29.5944 58.0727 29.6999 58.7108 29.8703 59.3325C31.1037 63.9346 40.9392 62.1411 43.2568 64.4251C43.4974 64.7631 43.7105 65.1295 43.9056 65.507L19.4461 72.0608C16.7789 72.7755 14.0373 71.1924 13.3224 68.5253L0.171659 19.4461C-0.54305 16.7788 1.03986 14.0371 3.70719 13.3224L52.7864 0.171623ZM18.3639 30.2037C14.7002 28.6373 10.8156 31.5552 8.87149 34.5276C5.16283 40.1921 8.54582 48.4672 15.4673 48.986C16.1105 49.033 16.2667 49.2925 16.0411 49.8938C15.337 51.7718 14.4348 53.5282 14.2716 55.5716C14.1564 56.9839 14.3035 58.4153 14.7042 59.7859C14.786 60.0911 15.8084 63.0926 16.2438 62.279C18.011 59.0177 19.7443 58.0442 22.3636 58.7102C24.706 59.3055 26.7889 59.327 28.9651 58.2031C27.9215 58.7038 25.92 58.7843 24.8119 58.7579C23.7368 58.7373 22.6318 58.4239 21.817 57.6778C20.9818 56.9074 20.5517 55.7514 20.4528 54.609C20.0937 50.382 22.9405 46.1935 27.3089 46.638C28.0125 46.7306 28.6917 46.9941 29.2925 47.4077C30.2878 48.0535 31.2475 48.854 31.9463 49.856C32.0561 50.0124 32.1606 50.1851 32.2553 50.3566L32.3188 50.3103C32.7543 49.9854 33.1308 49.7506 33.3976 49.5824C33.6613 49.4241 33.9461 49.3068 34.2433 49.2335C35.022 49.0249 36.0438 48.9742 37.1224 48.9231L37.8268 48.888C38.8008 48.8552 39.7675 48.732 40.7156 48.5194L40.7646 48.5062C41.1255 48.3575 41.4903 48.1897 41.8446 48.0167C42.2257 47.8328 42.5974 47.6394 42.9543 47.4565C43.9138 46.9615 44.8234 46.4947 45.6019 46.286C45.8965 46.2008 46.2029 46.1607 46.5109 46.1658C46.826 46.178 47.2753 46.1917 47.8082 46.257L47.8872 46.2651C47.8832 46.0686 47.8894 45.8723 47.9046 45.6771C48.0515 44.2111 48.5441 42.819 49.3381 41.6281C50.8789 39.2897 54.0768 38.9526 56.455 40.1164C58.1009 40.9299 59.4438 42.3187 60.2505 44.0412C60.7378 45.0797 60.9422 46.2969 60.6056 47.3815C60.2778 48.4339 59.4704 49.2597 58.5511 49.8145C57.602 50.3885 55.829 51.3183 54.6776 51.4095C57.1242 51.2947 58.9154 50.2352 60.6464 48.5484C62.58 46.6626 64.5691 46.6351 67.7326 48.5787C68.2421 48.8938 68.2341 48.1134 68.2194 47.7921C68.0835 45.8004 67.4351 43.8683 66.3445 42.2061C65.1518 40.4013 63.4458 39.1798 61.8259 37.8351L61.7141 37.7427C61.2183 37.3349 61.2241 37.0318 61.7591 36.6691C67.4939 32.759 66.2862 23.901 60.242 20.8499C57.0706 19.2483 52.2483 18.6635 49.8603 21.8513C48.8621 22.6725 48.1565 23.8265 47.853 25.136C47.6745 25.8288 47.3997 26.4921 47.3831 27.2233C47.3733 27.7982 47.1118 27.9272 46.5835 27.8086C43.2039 27.1067 39.7499 27.0815 36.4028 27.734C33.0379 28.3793 29.834 29.679 26.9519 31.5675C25.9802 32.2177 25.0537 32.9387 24.1785 33.7251C23.7801 34.0846 23.4863 34.0961 23.1941 33.6168C22.8141 32.9921 22.2446 32.5556 21.7437 32.045C20.826 31.0633 19.6387 30.4165 18.3639 30.2037ZM52.8555 42.3416C52.1336 42.2724 51.4128 42.4031 50.7655 42.7217C50.1181 43.0403 49.5659 43.5354 49.1646 44.1576C48.7633 44.7798 48.5267 45.5077 48.4776 46.2687C49.3356 46.4001 50.1755 46.6613 50.9711 47.0433C52.5113 47.7784 53.773 49.0594 54.5318 50.6579C55.1728 50.3262 55.7149 49.8195 56.1047 49.1891C56.4945 48.5585 56.7189 47.8251 56.7542 47.0628C56.7895 46.3006 56.6346 45.5355 56.3061 44.8434C55.9776 44.1512 55.4864 43.5561 54.8811 43.1172C54.2758 42.6784 53.5773 42.411 52.8555 42.3416ZM27.8923 48.7848C27.2241 48.9037 26.599 49.1954 26.0728 49.6353C25.5467 50.0752 25.1357 50.6497 24.8758 51.3068C24.616 51.9636 24.5154 52.6833 24.583 53.4022C24.6506 54.1213 24.8845 54.8184 25.2638 55.4298C25.643 56.0412 26.1565 56.5485 26.7578 56.908C27.3591 57.2674 28.03 57.4678 28.7115 57.4905C28.5976 55.915 28.96 54.3579 29.7467 53.0457C29.5106 53.0269 29.2818 52.9393 29.0856 52.7932C28.8894 52.647 28.7328 52.4481 28.6341 52.2176C28.5355 51.9869 28.4981 51.7336 28.5261 51.4863C28.5542 51.2389 28.6467 51.0065 28.7932 50.8152C28.9396 50.6239 29.135 50.4814 29.3569 50.4023C29.5788 50.3231 29.819 50.3106 30.0511 50.3669C30.2831 50.4232 30.4977 50.5461 30.6717 50.7213C30.8459 50.8965 30.9731 51.1175 31.0381 51.3601C31.0414 51.3697 31.0441 51.3795 31.0459 51.3894C31.3288 51.111 31.6275 50.8503 31.9398 50.609L32.0023 50.5629C31.8899 50.401 31.7666 50.2472 31.6335 50.1036C31.1507 49.5788 30.5564 49.1837 29.9039 48.9535C29.2514 48.7234 28.5604 48.6659 27.8923 48.7848ZM53.3591 43.9719C53.6029 43.907 53.8622 43.9208 54.1035 44.011C54.3454 44.1015 54.5588 44.2649 54.7167 44.4807C54.8747 44.6965 54.97 44.9556 54.9907 45.2241C55.0113 45.4925 54.9563 45.7588 54.8328 45.9893C54.7092 46.2198 54.5225 46.4044 54.2964 46.5192C54.0705 46.6339 53.8153 46.6742 53.5631 46.6349C53.3105 46.5953 53.0717 46.4774 52.878 46.2967C52.6845 46.1162 52.5439 45.8809 52.4743 45.6204C52.4278 45.4468 52.4143 45.2653 52.4339 45.0883C52.4535 44.9116 52.5058 44.7419 52.5882 44.5889C52.6709 44.4357 52.7826 44.3019 52.9156 44.1959C53.0474 44.091 53.1979 44.0146 53.3591 43.9719ZM34.0695 29.9303C36.936 29.0284 39.8732 28.4546 42.9293 28.7807C43.9552 28.8905 44.9794 29.0272 45.947 29.4593C46.2709 29.5824 46.6954 29.7156 46.6287 30.1997L46.6307 30.2072C46.5623 30.6994 46.1178 30.7902 45.7375 30.7751C44.8796 30.7393 44.0213 30.652 43.1655 30.5524C41.3822 30.3407 39.6438 30.5457 37.9142 30.9181C37.4202 31.0245 37.1881 31.2097 37.3546 31.7727C37.4162 32.0183 37.4613 32.2678 37.4899 32.519C37.5538 32.9199 37.7637 32.9878 38.1168 32.9081C40.0785 32.4271 42.0444 32.6126 44.0032 33.0374C44.2333 33.1081 44.4523 33.218 44.6513 33.3622C45.0082 33.5825 45.4072 33.8233 45.3144 34.335C45.2214 34.8465 44.8185 35.0844 44.3406 35.153C43.6055 35.2245 42.8626 35.2101 42.1252 35.1107C40.8524 34.9834 39.601 35.1315 38.3456 35.2449C37.4388 35.3262 38.2503 36.0026 38.1202 36.1545C37.9972 37.2095 38.5063 37.2479 39.1249 37.229C40.2217 37.1928 41.3225 37.2622 42.4138 37.4366C42.5801 37.4594 42.7457 37.492 42.9091 37.5344C43.4492 37.6907 43.9258 37.9486 43.9507 38.6333C43.969 39.1448 43.38 39.6517 42.7311 39.6546C41.588 39.6599 40.4278 39.7444 39.2991 39.5693C37.6502 39.3123 36.2554 39.6278 34.98 40.7387C34.2625 41.364 33.387 41.7927 32.5817 42.3115C32.4037 42.4329 32.2155 42.5376 32.0194 42.6239C31.5172 42.8235 30.9741 42.9891 30.5869 42.4092C30.2174 41.856 30.5361 41.3671 30.8824 40.9955C31.7954 40.0074 32.9474 39.3639 34.0545 38.6583C34.3033 38.5007 34.7483 38.4516 34.7101 38.0752C34.652 37.5959 34.5067 37.13 34.282 36.7038C34.1378 36.4192 33.8422 36.6357 33.6402 36.7271C32.5745 37.2018 31.5541 37.7784 30.593 38.4515C30.0001 38.9004 29.3569 39.2731 28.677 39.5604C28.2536 39.722 27.8802 39.6785 27.5744 39.2977C27.2687 38.917 27.4441 38.573 27.6449 38.2628C28.3879 37.1344 29.455 36.3893 30.5278 35.6725C31.3211 35.1422 32.171 34.706 32.9955 34.2267C33.4023 33.9895 33.4506 33.3223 33.1197 32.6527C32.8747 32.1609 32.5901 32.516 32.3331 32.6036C30.2418 33.3216 28.3093 34.4546 26.6382 35.9433C26.3368 36.1778 26.0037 36.3642 25.649 36.4965C25.4057 36.6026 25.1232 36.6203 24.9263 36.3535C24.7293 36.0866 24.8622 35.861 24.975 35.6449C25.254 35.1132 25.6864 34.7243 26.1132 34.3349C28.4317 32.2268 31.1482 30.8487 34.0695 29.9303ZM54.2765 24.4966C56.4488 23.7288 59.0085 24.6024 60.3865 26.5396C60.8598 27.2178 61.188 27.9948 61.3455 28.8132C61.5029 29.6314 61.4861 30.471 61.2971 31.2698C61.0203 32.3959 59.8934 34.6002 58.4785 34.2735L58.4802 34.2801C57.5822 34.0691 56.9311 33.0531 56.2502 32.4623C55.3433 31.6872 54.3667 31.0096 53.335 30.4419C52.9488 30.2295 52.5811 30.0475 52.2653 29.8571C51.4343 29.3567 50.9782 28.7926 51.543 27.422C52.0142 26.2736 53.1026 24.9134 54.2765 24.4966ZM11.5966 39.5289C11.8199 37.1627 13.5991 35.1208 15.8656 34.7049C17.0908 34.4789 18.7156 35.1129 19.6977 35.872C20.8606 36.7665 20.7441 37.4838 20.2798 38.3386C20.1031 38.6609 19.8747 39.0046 19.6477 39.3794C19.0371 40.3865 18.5289 41.4612 18.1311 42.5863C17.8354 43.4332 17.7814 44.6391 17.109 45.2765C16.0488 46.2741 13.9688 44.9212 13.1656 44.0826C12.6032 43.4846 12.1703 42.7653 11.8989 41.9774C11.6275 41.1895 11.524 40.3526 11.5966 39.5289ZM24.311 11.3846C23.6935 10.5036 22.3132 10.8735 22.2188 11.9452L21.7934 16.817L17.7877 19.6202C16.9063 20.2377 17.2763 21.6183 18.3483 21.7124L23.2192 22.1381L26.0233 26.1436C26.6408 27.025 28.0214 26.6551 28.1155 25.583L28.5412 20.7121L32.5466 17.908C33.4279 17.2904 33.0581 15.9098 31.986 15.8158L27.1154 15.391L24.311 11.3846ZM37.544 15.84C37.2352 15.3993 36.545 15.5843 36.4979 16.1203L36.2852 18.5562L34.2817 19.9574C33.8411 20.2662 34.0262 20.9563 34.562 21.0035L36.9979 21.2163L38.4001 23.2195C38.7089 23.66 39.3992 23.4752 39.4462 22.9392L39.658 20.5035L41.6612 19.1013C42.1019 18.7926 41.9169 18.1023 41.3809 18.0552L38.9452 17.8434L37.544 15.84Z" fill="white"/>
</svg>
