<svg width="53" height="53" viewBox="0 0 53 53" fill="none" xmlns="http://www.w3.org/2000/svg">
<g filter="url(#filter0_d_37_2162)">
<path d="M44 0C46.7613 0.000171843 49 2.23868 49 5V40C48.9998 42.7611 46.7611 44.9998 44 45H27.5332C27.5996 44.6929 27.6808 44.3902 27.7871 44.1025C29.0112 42.0261 36.3795 41.424 36.3799 37.8984C36.3826 37.4247 36.3369 36.9514 36.2432 36.4883C35.811 34.3404 34.3653 33.2984 33.2471 32.7803C33.1412 32.7311 33.0388 32.686 32.9404 32.6475C32.6092 32.5146 32.325 32.4244 32.127 32.3633C31.97 32.3186 31.8079 32.2985 31.6455 32.3027C30.516 32.3027 28.6213 33.0176 26.9912 33.0322C25.3613 33.0176 23.4674 32.3028 22.3379 32.3027C22.1754 32.2992 22.0127 32.3192 21.8555 32.3633C21.6413 32.4297 21.3248 32.5285 20.96 32.6826L20.8682 32.7227C19.7362 33.2195 18.1955 34.249 17.7285 36.4795C17.6332 36.9454 17.5862 37.4215 17.5889 37.8984C17.5893 41.424 24.9625 42.0261 26.1816 44.1025C26.2889 44.3902 26.3714 44.6928 26.4385 45H9C6.23872 45 4.00022 42.7612 4 40V5C4 2.23858 6.23858 8.08481e-08 9 0H44ZM14.9434 14.873C12.6246 13.0517 9.28897 14.3942 7.33008 16.1465C3.59438 19.4851 4.42748 26.0476 9.27539 27.7441C9.7262 27.9009 9.78818 28.1163 9.51172 28.5029C8.64876 29.7104 7.66723 30.7933 7.15918 32.2227C6.80634 33.2101 6.63717 34.2619 6.66113 35.3184C6.66129 35.5542 6.81745 37.8923 7.28418 37.3945C9.17209 35.4018 10.5981 35.0378 12.3428 36.0156C13.903 36.8897 15.3875 37.3045 17.1582 36.918C16.3164 37.076 14.871 36.7497 14.084 36.5186C13.3194 36.298 12.589 35.8624 12.1494 35.1729C11.7 34.4621 11.6145 33.5533 11.7627 32.7178C12.3158 29.6278 15.1522 27.1796 18.1895 28.334C18.6746 28.5349 19.1097 28.853 19.46 29.2637C20.0477 29.9159 20.5801 30.6723 20.8877 31.5225C20.9363 31.6553 20.9778 31.7987 21.0127 31.9395L21.0674 31.918C21.4409 31.7692 21.7547 31.6736 21.9775 31.6045C22.1963 31.5418 22.4229 31.5131 22.6494 31.5176C23.2458 31.5177 23.9851 31.6767 24.7656 31.8467L25.2764 31.957C25.9789 32.1201 26.6937 32.2165 27.4121 32.2461H27.4492C27.7356 32.2089 28.029 32.1583 28.3154 32.1025C28.6229 32.0441 28.9258 31.9784 29.2158 31.916C29.9966 31.746 30.7366 31.5859 31.333 31.5859C31.5597 31.5815 31.7859 31.6112 32.0049 31.6738C32.2277 31.7429 32.5466 31.8386 32.915 31.9873L32.9697 32.0088C33.0044 31.8676 33.0465 31.7284 33.0947 31.5918C33.4806 30.5719 34.0997 29.6709 34.8955 28.9717C36.4447 27.5954 38.7945 27.9676 40.2715 29.2549C41.2921 30.1516 41.9858 31.4013 42.2324 32.7871C42.3819 33.6227 42.295 34.5314 41.8467 35.2422C41.4109 35.9316 40.6764 36.3673 39.9131 36.5879C39.1248 36.8164 37.6785 37.1418 36.8379 36.9863C38.6086 37.3729 40.0921 36.959 41.6523 36.085C43.3958 35.1072 44.8228 35.4685 46.7119 37.4639C47.0158 37.7867 47.1589 37.2266 47.21 36.9941C47.4943 35.5445 47.4015 34.0395 46.9404 32.6426C46.4336 31.1242 45.4482 29.9246 44.5479 28.6533L44.4854 28.5654C44.2089 28.1788 44.2716 27.9634 44.7236 27.8066C49.5715 26.1101 50.4046 19.5476 46.6689 16.209C44.7088 14.4567 41.3732 13.1142 39.0557 14.9355C38.1849 15.3314 37.4599 16.0216 36.9922 16.8994C36.732 17.3603 36.4088 17.7815 36.2568 18.3008C36.1398 18.7099 35.9281 18.7523 35.5732 18.5664C33.2921 17.4174 30.8279 16.7382 28.3105 16.5635C25.7819 16.3803 23.2429 16.6954 20.8213 17.4932C20.0021 17.7718 19.201 18.1094 18.4248 18.5039C18.0711 18.6846 17.8592 18.6368 17.7422 18.2383C17.5902 17.719 17.267 17.2978 17.0068 16.8369C16.5388 15.9593 15.8139 15.2692 14.9434 14.873ZM37.2725 30.1553C36.7698 29.9675 36.2297 29.9236 35.7061 30.0273C35.1824 30.1311 34.6931 30.3793 34.2871 30.7471C33.8811 31.1149 33.5714 31.5895 33.3906 32.124C33.9788 32.3823 34.5299 32.7299 35.0254 33.1553C35.9855 33.9757 36.6417 35.133 36.8779 36.4209C37.3998 36.3065 37.8848 36.0479 38.2842 35.6719C38.6834 35.2959 38.9841 34.8153 39.1553 34.2773C39.3265 33.7392 39.362 33.1622 39.2598 32.6045C39.1575 32.0469 38.9209 31.5272 38.5723 31.0977C38.2236 30.668 37.7753 30.3431 37.2725 30.1553ZM18.1953 29.9795C17.6949 29.9365 17.1918 30.0266 16.7314 30.2402C16.2713 30.4539 15.8672 30.7854 15.5557 31.2051C15.2442 31.6249 15.0346 32.1206 14.9453 32.6475C14.856 33.1743 14.89 33.717 15.0439 34.2266C15.198 34.7361 15.4673 35.1973 15.8281 35.5693C16.1891 35.9414 16.6306 36.2126 17.1133 36.3594C17.3337 35.2115 17.8915 34.168 18.7051 33.3809C18.5398 33.3222 18.3926 33.2163 18.2803 33.0742C18.168 32.9322 18.0947 32.7598 18.0684 32.5762C18.042 32.3924 18.0634 32.2037 18.1309 32.0322C18.1982 31.861 18.309 31.7132 18.4502 31.6045C18.5915 31.4958 18.7589 31.4301 18.9326 31.416C19.1063 31.402 19.2805 31.4398 19.4355 31.5244C19.5905 31.6091 19.7207 31.738 19.8115 31.8965C19.9023 32.0549 19.9501 32.2371 19.9502 32.4229C19.9508 32.4304 19.9508 32.4388 19.9502 32.4463C20.2057 32.3015 20.4689 32.1722 20.7383 32.0596L20.792 32.0381C20.7427 31.9008 20.6838 31.7677 20.6162 31.6396C20.3716 31.172 20.0229 30.7758 19.6006 30.4863C19.1783 30.1969 18.6957 30.0225 18.1953 29.9795ZM37.3203 31.418C37.507 31.4183 37.6895 31.4772 37.8447 31.5879C38.0003 31.6989 38.1217 31.8565 38.1934 32.041C38.265 32.2256 38.2837 32.4291 38.2471 32.625C38.2104 32.8208 38.1197 33.0005 37.9873 33.1416C37.8549 33.2827 37.6865 33.3792 37.5029 33.418C37.3193 33.4568 37.129 33.436 36.9561 33.3594C36.7831 33.2828 36.6351 33.1535 36.5312 32.9873C36.4274 32.8211 36.3718 32.6255 36.3721 32.4258C36.3721 32.293 36.3975 32.1617 36.4453 32.0391C36.4932 31.9164 36.563 31.8046 36.6514 31.7109C36.7398 31.6172 36.8446 31.5425 36.96 31.4922C37.0743 31.4424 37.1969 31.4176 37.3203 31.418ZM26.2217 17.6855C28.4433 17.5899 30.6524 17.7432 32.7744 18.5615C33.4866 18.8365 34.1929 19.13 34.8018 19.624C35.0096 19.7741 35.2877 19.951 35.1475 20.2842V20.29C35.0042 20.6288 34.6684 20.6091 34.3994 20.5254C33.7932 20.3355 33.197 20.1081 32.6045 19.873C31.3705 19.3802 30.0887 19.194 28.7812 19.1289C28.4078 19.1103 28.2057 19.1978 28.2168 19.6318C28.2138 19.8191 28.1986 20.0064 28.1709 20.1914C28.1398 20.4902 28.2764 20.5791 28.5439 20.5898C30.0383 20.6217 31.4087 21.1307 32.7275 21.8096C32.8784 21.9042 33.0133 22.0249 33.1279 22.166C33.3409 22.3919 33.5804 22.6402 33.416 22.9883C33.2516 23.3362 32.9174 23.4292 32.5625 23.3867C32.0236 23.297 31.4952 23.1449 30.9873 22.9326C30.102 22.5979 29.1796 22.4631 28.2607 22.3037C27.5974 22.1882 28.0471 22.8268 27.9258 22.9111C27.6356 23.6418 27.9917 23.7661 28.4375 23.8711C29.2283 24.0553 30.0015 24.3168 30.748 24.6504C30.8625 24.6985 30.9753 24.7528 31.084 24.8145C31.4399 25.0296 31.7312 25.305 31.6182 25.7988C31.5335 26.1681 31.0152 26.418 30.5508 26.2959C29.7326 26.0807 28.8866 25.9186 28.1133 25.5771C26.9838 25.0777 25.9262 25.0369 24.8018 25.5869C24.1692 25.8963 23.4619 26.0345 22.7871 26.251C22.6366 26.3037 22.482 26.3421 22.3252 26.3662C21.9279 26.4127 21.5084 26.4274 21.3428 25.9385C21.1847 25.4723 21.5055 25.1836 21.8242 24.9844C22.666 24.453 23.6126 24.2141 24.5391 23.9219C24.747 23.8568 25.0753 23.9072 25.1201 23.6309C25.1703 23.2771 25.1552 22.9161 25.0762 22.5684C25.0277 22.3374 24.7752 22.4352 24.6133 22.4619C23.7606 22.5971 22.9204 22.8143 22.1045 23.1113C21.5948 23.3186 21.0643 23.462 20.5234 23.5371C20.1899 23.5716 19.9309 23.469 19.7852 23.1387C19.6395 22.8079 19.8312 22.5945 20.0342 22.4111C20.7813 21.7471 21.6869 21.4191 22.5908 21.1123C23.2595 20.8852 23.9508 20.7364 24.6318 20.5518C24.9679 20.4599 25.1298 19.9921 25.0215 19.4502C24.9406 19.0519 24.6692 19.2512 24.4688 19.2646C22.8365 19.3773 21.2383 19.8166 19.7588 20.5605C19.4984 20.6705 19.2242 20.74 18.9453 20.7666C18.7511 20.7958 18.5457 20.7548 18.4561 20.5264C18.3664 20.2979 18.5049 20.1621 18.627 20.0293C18.9283 19.7027 19.3117 19.5071 19.6914 19.3105C21.7523 18.2478 23.9578 17.7825 26.2217 17.6855ZM41.7061 17.6729C43.4058 17.54 45.0686 18.6542 45.6826 20.3027C45.891 20.8781 45.9758 21.4963 45.9316 22.1113C45.8875 22.7264 45.7149 23.3236 45.4268 23.8584C45.0132 24.6104 43.7857 25.9705 42.8369 25.4658V25.4707C42.2356 25.1479 41.9653 24.2968 41.5918 23.7441C41.0921 23.0165 40.5232 22.3455 39.8945 21.7422C39.6592 21.5163 39.4305 21.3158 39.2412 21.1191C38.7431 20.6024 38.5253 20.1116 39.1914 19.2402C39.7481 18.5096 40.787 17.7459 41.7061 17.6729ZM12.2949 17.6133C13.2139 17.6863 14.2539 18.45 14.8105 19.1807C15.4705 20.0427 15.2504 20.5327 14.7549 21.0547C14.5669 21.2513 14.3376 21.4533 14.1035 21.6777C13.474 22.2807 12.9051 22.9525 12.4053 23.6807C12.0317 24.2293 11.7619 25.0804 11.1592 25.4072C10.2104 25.9169 8.98289 24.5521 8.56934 23.7988C8.28184 23.2636 8.11048 22.6659 8.06738 22.0508C8.02432 21.4357 8.11061 20.818 8.32031 20.2432C8.93302 18.5947 10.5953 17.4766 12.2949 17.6133ZM22.7988 2.56152C22.5262 1.81322 21.4679 1.81322 21.1953 2.56152L19.959 5.96191L16.5586 7.19824C15.8103 7.47082 15.8103 8.52918 16.5586 8.80176L19.959 10.0381L21.1953 13.4385C21.4679 14.1868 22.5262 14.1868 22.7988 13.4385L24.0352 10.0381L27.4355 8.80176C28.1839 8.52918 28.1839 7.47082 27.4355 7.19824L24.0352 5.96191L22.7988 2.56152ZM31.4033 8.28027C31.267 7.90637 30.7389 7.90638 30.6025 8.28027L29.9834 9.98047L28.2832 10.5986C27.9093 10.735 27.9094 11.2639 28.2832 11.4004L29.9834 12.0186L30.6025 13.7188C30.7388 14.0929 31.267 14.0929 31.4033 13.7188L32.0225 12.0186L33.7227 11.4004C34.0964 11.2639 34.0965 10.735 33.7227 10.5986L32.0225 9.98047L31.4033 8.28027Z" fill="url(#paint0_linear_37_2162)"/>
</g>
<defs>
<filter id="filter0_d_37_2162" x="0" y="0" width="53" height="53" filterUnits="userSpaceOnUse" color-interpolation-filters="sRGB">
<feFlood flood-opacity="0" result="BackgroundImageFix"/>
<feColorMatrix in="SourceAlpha" type="matrix" values="0 0 0 0 0 0 0 0 0 0 0 0 0 0 0 0 0 0 127 0" result="hardAlpha"/>
<feOffset dy="4"/>
<feGaussianBlur stdDeviation="2"/>
<feComposite in2="hardAlpha" operator="out"/>
<feColorMatrix type="matrix" values="0 0 0 0 0 0 0 0 0 0 0 0 0 0 0 0 0 0 0.25 0"/>
<feBlend mode="normal" in2="BackgroundImageFix" result="effect1_dropShadow_37_2162"/>
<feBlend mode="normal" in="SourceGraphic" in2="effect1_dropShadow_37_2162" result="shape"/>
</filter>
<linearGradient id="paint0_linear_37_2162" x1="4" y1="0" x2="49" y2="45" gradientUnits="userSpaceOnUse">
<stop stop-color="#659DF2"/>
<stop offset="1" stop-color="#76C7AD"/>
</linearGradient>
</defs>
</svg>
