<svg width="25" height="25" viewBox="0 0 25 25" fill="none" xmlns="http://www.w3.org/2000/svg">
<path d="M11.9792 20.8334H5.20833C4.6558 20.8334 4.12589 20.6139 3.73519 20.2232C3.34449 19.8325 3.125 19.3026 3.125 18.7501V9.37508C3.125 8.82255 3.34449 8.29264 3.73519 7.90194C4.12589 7.51124 4.6558 7.29175 5.20833 7.29175H6.25C6.80253 7.29175 7.33244 7.07225 7.72314 6.68155C8.11384 6.29085 8.33333 5.76095 8.33333 5.20841C8.33333 4.93215 8.44308 4.6672 8.63843 4.47185C8.83378 4.27649 9.09873 4.16675 9.375 4.16675H15.625C15.9013 4.16675 16.1662 4.27649 16.3616 4.47185C16.5569 4.6672 16.6667 4.93215 16.6667 5.20841C16.6667 5.76095 16.8862 6.29085 17.2769 6.68155C17.6676 7.07225 18.1975 7.29175 18.75 7.29175H19.7917C20.3442 7.29175 20.8741 7.51124 21.2648 7.90194C21.6555 8.29264 21.875 8.82255 21.875 9.37508V11.9792" stroke="#34495E" stroke-width="2" stroke-linecap="round" stroke-linejoin="round"/>
<path d="M15.3719 12.3073C15.1608 11.8168 14.8275 11.3886 14.4039 11.0635C13.9802 10.7384 13.4803 10.5273 12.9519 10.4504C12.4235 10.3734 11.8841 10.4331 11.3854 10.6238C10.8866 10.8146 10.445 11.1299 10.1027 11.5398C9.76048 11.9497 9.52896 12.4405 9.43028 12.9653C9.33161 13.4901 9.36906 14.0314 9.53906 14.5376C9.70906 15.0438 10.006 15.498 10.4014 15.8569C10.7968 16.2157 11.2776 16.4673 11.7979 16.5875M21.0417 21.0417L22.9167 22.9167M15.625 18.75C15.625 19.5788 15.9543 20.3737 16.5403 20.9597C17.1264 21.5458 17.9212 21.875 18.75 21.875C19.5788 21.875 20.3737 21.5458 20.9597 20.9597C21.5458 20.3737 21.875 19.5788 21.875 18.75C21.875 17.9212 21.5458 17.1263 20.9597 16.5403C20.3737 15.9542 19.5788 15.625 18.75 15.625C17.9212 15.625 17.1264 15.9542 16.5403 16.5403C15.9543 17.1263 15.625 17.9212 15.625 18.75Z" stroke="#34495E" stroke-width="2" stroke-linecap="round" stroke-linejoin="round"/>
</svg>
