<svg width="14" height="19" viewBox="0 0 14 19" fill="none" xmlns="http://www.w3.org/2000/svg">
<path d="M4.5858 18.8191L3.41542 18.9879C2.81182 19.0742 1.78496 18.6936 1.70399 18.0461C1.62302 17.4026 2.51737 16.7434 3.12097 16.6531L4.29138 16.4844C4.89498 16.3981 5.92185 16.7827 6.00282 17.4301C6.08379 18.0736 5.1894 18.7328 4.5858 18.8191Z" fill="url(#paint0_radial_256_4304)"/>
<path d="M3.76134 15.6447L3.42645 15.6918C2.1162 15.8802 0.603508 14.9463 0.426844 13.5533L0.0219997 10.3554C-0.0205015 10.0237 -0.00130306 9.68644 0.0785638 9.36275C0.158431 9.03906 0.297396 8.73531 0.487452 8.46891C0.677508 8.20251 0.914951 7.97869 1.18621 7.81021C1.45748 7.64172 1.75722 7.53187 2.06833 7.48699L3.02525 7.34966C3.33657 7.30438 3.65322 7.32505 3.95705 7.41044C4.26088 7.49584 4.54593 7.6443 4.79585 7.84733C5.04577 8.05036 5.25567 8.30395 5.41352 8.59359C5.57136 8.88324 5.67405 9.20326 5.7157 9.53528L6.12055 12.7332C6.29721 14.134 5.06792 15.4642 3.76134 15.6447Z" fill="url(#paint1_radial_256_4304)"/>
<path d="M10.309 11.6502L9.13492 11.5286C8.52764 11.4658 7.6112 10.8419 7.66273 10.1945C7.72161 9.54703 8.73373 9.11934 9.34101 9.18213L10.5151 9.30374C11.1224 9.37045 12.0388 9.99436 11.9873 10.6418C11.9247 11.2892 10.9126 11.7208 10.309 11.6502Z" fill="url(#paint2_radial_256_4304)"/>
<path d="M10.1838 8.36199L9.84521 8.32669C8.53128 8.19328 7.2689 6.91413 7.38667 5.5133L7.6774 2.30356C7.70782 1.97015 7.79958 1.64641 7.94737 1.3508C8.09517 1.0552 8.2961 0.793527 8.53876 0.580733C8.78142 0.367938 9.06104 0.208185 9.36161 0.110606C9.66218 0.0130264 9.97782 -0.0204648 10.2905 0.0120301L11.2512 0.110127C11.8821 0.1766 12.4624 0.507317 12.8648 1.02969C13.2671 1.55206 13.4585 2.22335 13.3969 2.89607L13.1061 6.10576C12.9773 7.50659 11.4978 8.49933 10.1838 8.36199Z" fill="url(#paint3_radial_256_4304)"/>
<defs>
<radialGradient id="paint0_radial_256_4304" cx="0" cy="0" r="1" gradientUnits="userSpaceOnUse" gradientTransform="translate(3.8534 17.7362) rotate(90) scale(1.2638 2.15455)">
<stop stop-color="white"/>
<stop offset="1" stop-color="white" stop-opacity="0.85"/>
</radialGradient>
<radialGradient id="paint1_radial_256_4304" cx="0" cy="0" r="1" gradientUnits="userSpaceOnUse" gradientTransform="translate(3.06877 11.5211) rotate(90) scale(4.19482 3.06877)">
<stop stop-color="white"/>
<stop offset="1" stop-color="white" stop-opacity="0.85"/>
</radialGradient>
<radialGradient id="paint2_radial_256_4304" cx="0" cy="0" r="1" gradientUnits="userSpaceOnUse" gradientTransform="translate(9.82501 10.4169) rotate(90) scale(1.24087 2.16437)">
<stop stop-color="white"/>
<stop offset="1" stop-color="white" stop-opacity="0.85"/>
</radialGradient>
<radialGradient id="paint3_radial_256_4304" cx="0" cy="0" r="1" gradientUnits="userSpaceOnUse" gradientTransform="translate(10.3936 4.18734) rotate(90) scale(4.18734 3.0146)">
<stop stop-color="white"/>
<stop offset="1" stop-color="white" stop-opacity="0.85"/>
</radialGradient>
</defs>
</svg>
